<svg xmlns="http://www.w3.org/2000/svg" width="1024" height="1024" viewBox="0 0 1024 1024" version="1.1">
	<path d="M 501 30.048 C 463.537 31.259, 434.301 34.924, 405 42.081 C 376.448 49.055, 359.260 54.583, 333 65.236 C 319.485 70.719, 282.923 88.647, 274 94.166 C 270.975 96.038, 267.410 98.228, 266.079 99.034 C 257.565 104.188, 231.792 121.992, 225.919 126.776 C 213.377 136.994, 200.699 148.123, 191.157 157.291 C 181.822 166.259, 181.071 167.941, 186.380 167.985 C 189.241 168.008, 211.361 173.087, 212.500 173.982 C 213.050 174.414, 216.650 175.904, 220.500 177.292 C 232.506 181.620, 247.453 190.625, 268.843 206.415 C 278.748 213.727, 300.570 236.072, 309.281 247.823 C 315.615 256.366, 333 284.614, 333 286.361 C 333 286.636, 334.350 289.777, 336 293.342 C 337.650 296.907, 339 300.390, 339 301.082 C 339 301.774, 336.188 305.323, 332.750 308.968 C 318.322 324.269, 304.554 342.504, 297.050 356.250 C 294.338 361.217, 292.209 364, 291.120 364 C 290.185 364, 286.767 363.309, 283.524 362.464 C 280.282 361.620, 277.094 361.134, 276.440 361.385 C 275.787 361.635, 275.015 364.464, 274.725 367.670 C 273.313 383.297, 270.858 405.028, 270.001 409.500 C 269.473 412.250, 268.558 419.422, 267.968 425.437 C 267.377 431.452, 266.281 439.327, 265.533 442.937 C 264.784 446.547, 263.665 453.735, 263.046 458.910 C 262.427 464.086, 261.746 468.601, 261.534 468.945 C 261.321 469.289, 260.850 472.254, 260.486 475.535 C 260.122 478.816, 259.385 483.525, 258.848 486 C 258.311 488.475, 256.563 497.925, 254.964 507 C 253.365 516.075, 251.331 526.650, 250.445 530.500 C 248.347 539.615, 245.097 554.308, 243.920 560 C 243.408 562.475, 241.169 569.900, 238.944 576.500 C 233.684 592.101, 233.099 594, 233.552 594 C 235.009 594, 248.355 585.789, 255.201 580.681 L 263.485 574.500 271.094 559.344 C 282.601 536.421, 292.496 521.593, 304.922 508.648 C 321.173 491.718, 337.725 482.432, 360 477.746 C 368.918 475.870, 373.480 475.550, 390.274 475.626 C 401.150 475.675, 410.299 475.966, 410.605 476.272 C 413.048 478.715, 391.523 504.709, 378.971 514.475 C 372.842 519.243, 356.767 529.092, 347.500 533.755 C 341.152 536.950, 317.258 544.987, 308 547.041 C 300.813 548.636, 300 549.406, 300 554.623 C 300 557.031, 298.662 567.664, 297.026 578.251 C 295.391 588.838, 293.359 603.575, 292.511 611 C 289.314 638.992, 285.925 665.132, 281.944 692.500 C 280.824 700.200, 279.028 713.025, 277.952 721 C 276.877 728.975, 275.054 742.025, 273.900 750 C 272.746 757.975, 271.196 769, 270.456 774.500 C 269.715 780, 268.670 787.425, 268.133 791 C 267.595 794.575, 266.877 799.750, 266.537 802.500 C 266.197 805.250, 265.293 811.775, 264.527 817 C 262.504 830.816, 261.743 840.670, 262.790 839.500 C 263.283 838.950, 267.436 833.550, 272.021 827.500 C 289.160 804.881, 307.820 783.071, 319.124 772.446 C 338.816 753.936, 365.064 735.041, 383.500 726.102 C 407.250 714.588, 440.419 704.336, 462.948 701.547 C 469.647 700.717, 475.466 699.830, 475.878 699.575 C 476.290 699.321, 483.616 698.989, 492.157 698.839 L 507.687 698.566 514.312 703.033 C 517.955 705.490, 520.951 707.766, 520.968 708.092 C 521.045 709.525, 511.943 711.126, 495.855 712.511 C 454.179 716.096, 429.074 722.673, 396.500 738.540 C 389.350 742.022, 380.683 746.694, 377.239 748.921 C 373.796 751.148, 369.296 753.838, 367.239 754.898 C 365.183 755.958, 362.591 757.653, 361.479 758.663 C 360.368 759.673, 356.543 762.731, 352.979 765.457 C 341.220 774.455, 326.658 787.541, 315.825 798.846 C 304.783 810.370, 283.260 836.482, 279.020 843.500 C 277.690 845.700, 274.948 849.750, 272.926 852.500 C 270.904 855.250, 268.137 859.525, 266.777 862 C 262.964 868.940, 257.823 877.315, 256.211 879.213 C 255.411 880.156, 254.173 885.331, 253.461 890.713 C 252.748 896.096, 251.206 907.475, 250.033 916 C 248.860 924.525, 247.501 934.875, 247.012 939 C 246.524 943.125, 245.830 948.525, 245.470 951 L 244.816 955.500 247.059 952 C 248.293 950.075, 253.727 940.114, 259.136 929.866 C 271.455 906.521, 287.664 880.014, 298.496 865.500 C 325.021 829.959, 343.462 809.707, 366 791.369 C 395.563 767.316, 421.098 754.830, 463 743.939 C 466.061 743.143, 487.599 740, 489.989 740 C 490.476 740, 489.604 742.813, 488.051 746.250 C 483.372 756.605, 477.990 774.216, 477.737 779.995 C 477.443 786.729, 477.264 786.672, 494 785.086 C 509.986 783.571, 516.971 782.396, 530.250 778.987 C 536.163 777.470, 540.993 776.514, 540.985 776.864 C 540.977 777.214, 540.351 780.200, 539.594 783.500 C 537.279 793.591, 536.876 800.086, 537.950 810 C 539.047 820.135, 543.611 835.913, 545.674 836.705 C 547.024 837.223, 561.141 829.060, 570 822.638 C 573.025 820.445, 580.602 813.621, 586.838 807.472 C 595.147 799.278, 598.309 796.721, 598.676 797.896 C 603.550 813.516, 611.386 823, 619.417 823 C 627.452 823, 642.064 813.291, 651.725 801.530 L 654.950 797.605 657.225 799.681 C 661.446 803.534, 674.472 809.906, 681.510 811.561 C 689.641 813.473, 700.861 812.977, 704.579 810.540 C 705.887 809.683, 707.657 807.631, 708.510 805.980 C 711.309 800.568, 715 784.226, 715.002 777.237 L 715.004 770.500 723.651 770.278 C 728.407 770.155, 734.789 769.331, 737.834 768.446 C 745.051 766.348, 758.928 759.351, 759.661 757.440 C 759.977 756.618, 758.527 752.114, 756.440 747.431 C 753.451 740.723, 750.994 737.149, 744.861 730.595 C 740.579 726.019, 735.709 721.708, 734.037 721.015 L 730.998 719.757 737.032 713.307 C 750.317 699.105, 757.107 683.391, 752.799 676.816 C 750.876 673.881, 732.668 663.956, 723.750 660.981 C 720.038 659.743, 717 658.523, 717 658.269 C 717 658.016, 717.846 656.614, 718.879 655.154 C 722.689 649.772, 729.619 637.368, 731.255 633 C 733.589 626.770, 736.985 612.162, 736.993 608.311 C 737 605.316, 736.737 605.083, 732.673 604.474 C 730.293 604.117, 722.572 604.318, 715.516 604.921 C 696.804 606.520, 683.932 611.146, 670.293 621.172 C 667.429 623.277, 664.927 625, 664.734 625 C 664.541 625, 664.266 620.837, 664.122 615.750 C 663.683 600.262, 660.392 586.644, 653.321 571.068 C 649.881 563.489, 641.099 548, 640.241 548 C 639.981 548, 637.647 549.557, 635.056 551.459 C 626.834 557.494, 615.592 570.163, 610.551 579.072 C 605.723 587.604, 599 604.471, 599 608.050 C 599 610.743, 598.432 610.551, 593.448 606.163 C 580.640 594.889, 560.456 589.559, 537.737 591.452 C 530.113 592.087, 528.986 592.431, 528.290 594.336 C 527.066 597.689, 527.885 621.223, 529.523 629.787 C 531.233 638.719, 534.482 645.867, 539.499 651.728 C 543.546 656.455, 543.433 656.631, 534.881 658.940 C 528.727 660.601, 526.262 659.273, 517.166 649.402 C 509.018 640.560, 506.816 636.529, 506.206 629.343 C 505.842 625.058, 506.311 623.036, 508.979 617.389 C 512.267 610.430, 514.952 600.067, 514.983 594.215 C 515.002 590.478, 516.545 587.743, 522.909 580.164 C 530.819 570.745, 538.097 567.075, 553 564.993 C 563.435 563.535, 569.078 561.643, 571.692 558.725 C 574.229 555.892, 578.389 545.456, 577.698 543.656 C 577.410 542.904, 574.715 540.901, 571.710 539.205 C 566.388 536.202, 560 529.741, 560 527.361 C 560 525.554, 554.411 521.249, 551.128 520.528 C 547.549 519.742, 545.616 517.632, 544.075 512.830 C 542.134 506.779, 540.480 506.142, 536.566 509.936 C 533.720 512.695, 532.903 513.018, 531.150 512.080 C 530.015 511.473, 528.729 510.408, 528.293 509.714 C 526.769 507.289, 522.042 505, 518.558 505 C 514.631 505, 512.272 507.595, 511.034 513.275 C 510.559 515.457, 509.874 516.338, 508.916 516 C 506.062 514.992, 480.365 515.684, 476 516.887 C 468.410 518.978, 457.482 524.934, 450.831 530.607 C 447.349 533.576, 442.700 536.880, 440.500 537.948 C 438.300 539.016, 427.950 541.534, 417.500 543.544 C 392.786 548.295, 386.985 551.089, 372.332 565.293 C 360.458 576.804, 356.912 582.970, 352.084 600.500 C 348.973 611.798, 344.659 633.856, 343.479 644.500 C 342.621 652.244, 341.023 657.761, 336.961 667.012 C 332.779 676.535, 332.483 683.717, 335.900 692.783 C 337.203 696.238, 338.095 699.209, 337.884 699.384 C 337.673 699.560, 332.057 702.646, 325.404 706.241 C 318.751 709.837, 311.179 714.403, 308.577 716.389 C 303.091 720.577, 301.773 720.870, 302.452 717.750 C 303.192 714.350, 305.924 695.009, 307.573 681.500 C 308.379 674.900, 309.445 667.025, 309.943 664 C 311.459 654.783, 312.840 644.813, 313.475 638.500 C 313.807 635.200, 314.742 628.225, 315.554 623 C 316.365 617.775, 317.696 608.100, 318.511 601.500 C 320.666 584.042, 322.828 568.824, 323.187 568.577 C 323.359 568.459, 326.425 567.577, 330 566.619 C 352.036 560.710, 379.255 546.196, 396.941 530.925 C 413.983 516.210, 422.210 506.364, 436.201 483.938 C 439.032 479.401, 451.154 455.820, 450.821 455.497 C 449.074 453.796, 435.276 451.773, 419.500 450.904 C 381.940 448.837, 353.889 453.121, 327.995 464.880 C 310.304 472.914, 296.832 483.623, 283.214 500.478 C 281.020 503.194, 280 503.904, 280 502.717 C 280 500.109, 282.828 482.403, 284.426 475 C 286.420 465.769, 287.573 459.382, 290.024 444 C 291.207 436.575, 292.361 429.522, 292.587 428.327 C 293.251 424.830, 297.512 420.496, 308.704 411.937 C 331.984 394.133, 340.708 389.376, 352.887 387.841 C 361.669 386.734, 363.552 385.840, 373.155 378.215 C 405.940 352.181, 417.898 345.861, 434.324 345.887 C 444.474 345.903, 451.073 347.560, 460.736 352.519 C 464.456 354.428, 468.456 355.992, 469.625 355.995 C 471.655 356, 485.011 345.973, 493.500 338.072 C 511.098 321.693, 529.119 312.721, 544.500 312.680 C 556.926 312.648, 567.322 317.583, 583.367 331.130 C 617.735 360.150, 634.914 375.840, 661.690 402.663 C 672.676 413.669, 673.135 414.686, 672.785 427.268 L 672.500 437.500 649.954 415 C 630.498 395.584, 599.702 366.537, 592.097 360.430 C 590.776 359.368, 586.051 355.333, 581.597 351.462 C 568.398 339.990, 564.664 337.198, 557.583 333.507 C 549.957 329.532, 542.984 328.897, 534.617 331.415 C 529.403 332.984, 518.936 339.238, 512.612 344.563 C 493.317 360.809, 473.202 375.966, 470.916 375.982 C 469.494 375.992, 465.751 374.192, 462.592 371.980 C 450.618 363.591, 447.601 362.498, 436.500 362.521 C 427.334 362.540, 425.958 362.805, 420 365.704 C 410.702 370.228, 399.364 378.052, 385 389.856 C 370.247 401.980, 365.716 404.493, 357.030 405.365 C 348.368 406.236, 335.539 412.578, 322.500 422.438 C 308.138 433.297, 308 433.493, 308 443.056 C 308 447.425, 308.398 451, 308.884 451 C 309.371 451, 315.991 445.982, 323.596 439.850 C 339.934 426.676, 348.296 422.266, 359.596 420.863 C 369.887 419.586, 370.803 419.073, 390.755 403.427 C 401.750 394.805, 425.161 379.432, 429.453 378.015 C 433.912 376.544, 433.941 376.567, 441.547 387.223 C 456.899 408.731, 474.995 426.150, 495.131 438.803 C 506.395 445.881, 528.204 457.068, 536.500 460.025 C 568.457 471.412, 581.651 475.113, 625.500 484.990 C 633.200 486.724, 643.100 488.990, 647.500 490.026 C 651.900 491.061, 657.300 492.197, 659.500 492.549 C 669.632 494.171, 671 494.846, 671 498.225 C 671 501.630, 667.899 516.868, 662.443 540.269 C 660.549 548.392, 659 555.796, 659 556.723 C 659 557.649, 661.084 562.691, 663.630 567.926 C 669.718 580.439, 671.679 586.349, 673.038 596.278 C 673.657 600.798, 674.267 604.600, 674.393 604.726 C 674.693 605.026, 689.933 598.400, 690.694 597.639 C 691.015 597.319, 691.192 589.281, 691.089 579.778 C 690.930 565.281, 691.238 561.052, 693.002 553.500 C 697.642 533.637, 700.764 516.872, 703.617 496.500 C 706.089 478.845, 706.122 442.200, 703.679 426.500 C 701.282 411.096, 694.954 386.261, 690.557 375 C 679.776 347.393, 656.663 313.286, 639.312 299.378 C 636.665 297.257, 632.025 293.450, 629 290.918 C 607.200 272.671, 577.393 259.012, 545.197 252.517 C 506.881 244.786, 462.063 249.169, 422.258 264.539 C 411.203 268.808, 396.142 276.704, 382.289 285.493 C 377.494 288.535, 373.148 290.883, 372.631 290.710 C 372.114 290.538, 371.143 288.543, 370.474 286.277 C 369.071 281.527, 355.739 255.716, 350.615 247.833 C 348.709 244.900, 345.120 239.823, 342.639 236.550 C 337.982 230.406, 336.790 227.856, 337.873 226.347 C 339.363 224.270, 349.265 216.813, 358.710 210.657 C 369.954 203.326, 388.477 193.754, 400.647 188.983 C 404.966 187.289, 409.850 185.288, 411.500 184.536 C 416.190 182.397, 441.649 175.258, 451.031 173.450 C 455.689 172.553, 468.275 170.725, 479 169.389 C 496.046 167.265, 500.954 167.036, 518 167.568 C 528.725 167.904, 539.622 168.573, 542.216 169.057 C 544.809 169.540, 550.884 170.414, 555.716 170.999 C 574.170 173.235, 604.863 182.475, 623.627 191.445 C 678.718 217.778, 718.009 256.238, 742.704 308 C 749.964 323.217, 754.454 334.823, 758.565 349 C 760.559 355.875, 762.612 362.850, 763.126 364.500 C 766.229 374.447, 771.511 415.625, 771.918 433.036 C 772.363 452.107, 767.948 499.414, 764.922 508 C 764.825 508.275, 764.608 508.950, 764.440 509.500 C 763.751 511.754, 756.132 552.874, 755.546 557.500 C 755.197 560.250, 754.469 566.100, 753.926 570.500 C 751.818 587.601, 753.272 613.938, 757.211 630 C 758.641 635.831, 764.898 650.319, 768.325 655.734 C 775.330 666.801, 787.685 677.285, 802.514 684.744 C 809.504 688.260, 830.570 695.476, 836.820 696.495 L 841.140 697.199 837.560 692.217 C 828.600 679.745, 823 659.403, 823 639.329 C 823 602.962, 828.632 573.801, 847.979 510 C 854.142 489.677, 863.302 454.192, 866.049 440 C 879.126 372.430, 877.768 328.956, 860.693 268.500 C 858.829 261.900, 856.170 253.575, 854.784 250 C 853.398 246.425, 851.453 241.250, 850.461 238.500 C 849.469 235.750, 846.260 228.667, 843.329 222.760 C 840.398 216.853, 838 211.736, 838 211.389 C 838 209.032, 812.988 168.988, 809.065 165.065 C 808.096 164.096, 804.828 159.972, 801.805 155.901 C 796.777 149.131, 766.014 117.200, 756.500 108.875 C 750.093 103.269, 734.069 91.555, 723.894 85.040 C 695.434 66.816, 660.926 51.682, 629.500 43.639 C 599.729 36.021, 573.686 31.946, 545.500 30.495 C 539.450 30.184, 532.250 29.785, 529.500 29.609 C 526.750 29.432, 513.925 29.630, 501 30.048 M 539 59.447 C 539 59.828, 540.376 62.140, 542.058 64.585 C 552.833 80.245, 557.855 97.380, 558.885 122 L 559.534 137.500 560.901 130 C 563.568 115.368, 560.038 92.029, 553.016 77.873 C 549.025 69.825, 539 56.647, 539 59.447 M 466 64.690 C 466 65.205, 467.392 66.948, 469.093 68.563 C 473.639 72.880, 484.332 89.444, 487.773 97.500 C 492.630 108.874, 495.643 120.277, 497.508 134.342 C 498.757 143.764, 499.174 137.975, 498.096 126.167 C 496.464 108.277, 490.855 92.433, 481.753 80 C 476.545 72.886, 466 62.638, 466 64.690 M 397.103 76.197 C 413.238 92.051, 428.334 115.719, 434.490 134.815 C 436.917 142.340, 437.560 140.467, 435.527 131.797 C 433.179 121.782, 424.449 104.105, 416.939 94.160 C 410.419 85.525, 401.094 76.433, 395.177 72.942 C 392.179 71.173, 392.442 71.617, 397.103 76.197 M 611.458 73.500 C 611.700 74.600, 612.934 79.775, 614.199 85 C 616.179 93.176, 616.492 97.009, 616.444 112.500 C 616.390 129.880, 615.523 136.589, 611.523 150.570 C 611.220 151.631, 612.106 150.195, 613.494 147.377 C 618.387 137.442, 620.281 127.786, 620.239 113 C 620.194 97.253, 618.259 86.335, 613.946 77.500 C 612.336 74.200, 611.216 72.400, 611.458 73.500 M 675.454 111.693 C 675.396 130.400, 673.205 140.497, 664.103 164 C 662.554 168, 662.405 168.955, 663.557 167.500 C 666.881 163.303, 673.033 149.097, 675.683 139.500 C 678.032 130.994, 678.448 127.558, 678.472 116.500 C 678.492 107.031, 678.093 102.602, 677 100.193 C 675.583 97.070, 675.497 97.710, 675.454 111.693 M 323.054 102.835 C 340.865 114.193, 362.906 135.912, 373.868 152.905 C 379.114 161.037, 379.160 159.679, 373.961 150.141 C 363.586 131.107, 347.218 114.940, 326.904 103.662 C 319.080 99.318, 316.757 98.819, 323.054 102.835 M 728.661 140.487 C 727.188 157.905, 720.396 175.230, 707.485 194.500 L 700.784 204.500 705.490 200 C 719.499 186.605, 731.034 160.042, 730.985 141.292 C 730.961 132.288, 729.399 131.747, 728.661 140.487 M 772.630 183.107 C 772.400 183.873, 771.437 187.548, 770.489 191.273 C 766.955 205.159, 758.694 219.071, 746.095 232.353 C 738.707 240.142, 738.632 240.270, 743.349 237.064 C 757.945 227.142, 770.794 206.569, 772.845 189.837 C 773.685 182.977, 773.587 179.910, 772.630 183.107 M 491.500 189.681 C 462.343 192.001, 426.887 199.983, 408.070 208.462 C 403.906 210.338, 399.150 212.380, 397.500 213.001 C 391.798 215.145, 367 229.305, 367 230.417 C 367 231.030, 368.847 234.675, 371.105 238.516 C 373.362 242.357, 375.500 246.175, 375.855 247 C 376.210 247.825, 378.232 251.547, 380.348 255.271 L 384.196 262.042 387.348 260.144 C 392.677 256.936, 412.203 247.253, 417.750 245.068 C 420.637 243.931, 425.363 242.059, 428.250 240.908 C 437.376 237.272, 464.026 230.996, 476.817 229.471 C 490.335 227.860, 517.502 227.321, 528.500 228.447 C 537.952 229.414, 560.019 233.569, 568.007 235.885 C 586.900 241.363, 608.434 251.085, 623 260.712 C 662.966 287.128, 692.423 324.654, 711.507 373.464 C 721.044 397.857, 725.556 422.761, 726.369 455.500 C 727.027 481.995, 724.860 498.807, 715.551 539.419 C 710.996 559.296, 710.070 566.370, 710.031 581.602 L 710 593.704 718.250 594.346 C 722.788 594.699, 728.075 594.990, 730 594.993 L 733.500 594.998 733.662 579.249 C 733.823 563.577, 734.254 560.593, 740.064 535 C 742.050 526.253, 745.019 509.363, 746.480 498.500 C 747.294 492.450, 748.447 483.900, 749.042 479.500 C 751.105 464.248, 751.349 434.843, 749.583 414.500 C 748.675 404.050, 747.731 394.825, 747.485 394 C 747.239 393.175, 746.129 387.164, 745.017 380.641 C 742.575 366.307, 739.797 356.691, 731.830 335 C 722.696 310.129, 711.269 290.448, 694.251 270.275 C 679.184 252.415, 661.780 237.264, 641.500 224.355 C 625.881 214.414, 613.939 209.105, 585.377 199.407 C 579.146 197.291, 564.223 194.411, 547.500 192.097 C 533.666 190.182, 502.240 188.827, 491.500 189.681 M 802.138 247.750 C 795.155 259.524, 788.772 266.535, 776.881 275.492 C 771.400 279.621, 767.271 282.994, 767.707 282.986 C 769.148 282.960, 783.310 274.915, 786.434 272.348 C 792.022 267.756, 800.118 257.592, 803.437 251 C 806.420 245.078, 808.570 239, 807.683 239 C 807.487 239, 804.992 242.938, 802.138 247.750 M 824.571 305.035 C 817.763 313.963, 807.615 321.666, 788.500 332.417 L 785.500 334.104 788.500 333.474 C 798.728 331.327, 817.303 319.647, 823.167 311.675 C 826.276 307.449, 829.426 301.093, 828.747 300.414 C 828.544 300.210, 826.665 302.290, 824.571 305.035 M 533.631 347.516 C 528.466 349.292, 523.609 352.719, 508.173 365.481 C 500.843 371.542, 492.405 378.441, 489.423 380.814 C 486.440 383.187, 484 385.676, 484 386.346 C 484 387.738, 493.326 396.979, 500 402.199 C 510.177 410.159, 527.153 418.924, 540.339 423.028 C 549.162 425.774, 570.776 428.631, 572.850 427.325 C 576.313 425.144, 575.037 422.972, 563.136 410.785 C 544.517 391.721, 537.187 381.215, 536.264 372.270 L 535.689 366.695 539.856 367.254 C 542.148 367.561, 549.200 370.330, 555.526 373.406 C 561.852 376.483, 567.306 379, 567.647 379 C 567.987 379, 564.889 375.466, 560.762 371.146 C 556.635 366.826, 550.971 359.902, 548.175 355.760 C 542.307 347.063, 539.529 345.489, 533.631 347.516 M 836.435 364.087 C 832.697 367.934, 820.726 375.392, 814.424 377.801 C 812.816 378.415, 807.900 380.301, 803.500 381.990 L 795.500 385.063 801.126 384.537 C 810.091 383.700, 818.889 380.439, 827.483 374.768 C 834.644 370.042, 842.267 361.933, 840.865 360.532 C 840.593 360.259, 838.599 361.859, 836.435 364.087 M 631.228 573.868 C 625.571 579.524, 617.981 590.532, 614.824 597.658 C 607.180 614.909, 606.039 636.575, 611.686 657.231 C 613.287 663.088, 615 664.069, 615 659.129 C 615 654.375, 618.989 640.799, 622.603 633.250 C 628.031 621.915, 629.952 624.058, 625.583 636.576 C 621.209 649.110, 618.242 671, 620.917 671 C 621.422 671, 622.620 668.862, 623.579 666.250 C 624.539 663.638, 625.885 660.080, 626.572 658.345 C 627.258 656.609, 628.347 652.645, 628.993 649.535 C 629.908 645.126, 630.704 643.636, 632.610 642.768 C 637.134 640.706, 637.497 643.184, 633.570 649.323 C 630.241 654.528, 627 663.911, 627 668.348 C 627 669.829, 627.717 669.375, 630.097 666.388 C 634.372 661.022, 636.206 657.224, 635.537 655.118 C 635.199 654.051, 635.755 652.627, 636.923 651.570 C 639.081 649.616, 641 650.200, 640.999 652.809 C 640.998 655.635, 635.466 666.396, 631.878 670.551 L 628.500 674.463 632.364 671.326 C 653.677 654.019, 659.925 621.407, 648.113 589.126 C 645.158 581.050, 640.347 572.363, 637.538 570.032 C 636.481 569.154, 635.105 569.990, 631.228 573.868 M 542.106 603.681 L 538.713 604.148 539.263 615.824 C 540.297 637.773, 545.868 645.841, 566.738 655.615 C 582.167 662.841, 585.063 664.276, 584.756 664.546 C 584.615 664.669, 581.620 664.299, 578.100 663.723 C 560.277 660.807, 531.408 671.359, 519.660 685.084 L 515.888 689.491 518.194 691.402 C 521.419 694.074, 541.389 703.475, 547.932 705.401 C 553.876 707.151, 564.506 707.519, 568.229 706.103 C 569.527 705.610, 574.316 701.543, 578.872 697.066 C 587.918 688.176, 592.875 684.521, 598.703 682.442 L 602.500 681.088 598.211 681.044 C 591.082 680.971, 575.016 682.985, 566.100 685.070 C 561.480 686.150, 557.516 686.849, 557.291 686.624 C 556.451 685.784, 567.767 680.058, 575.175 677.574 C 579.397 676.159, 586.372 674.512, 590.675 673.914 C 594.979 673.316, 598.612 672.717, 598.748 672.582 C 598.884 672.448, 594.879 667.199, 589.846 660.919 C 584.814 654.638, 577.120 644.853, 572.749 639.173 C 565.641 629.937, 565.145 629.024, 568.058 630.530 C 572.773 632.968, 579.907 639.935, 589.188 651.168 C 593.662 656.582, 597.443 660.890, 597.592 660.741 C 597.741 660.593, 596.993 657.337, 595.931 653.507 C 593.959 646.397, 593.302 636.451, 594.868 637.419 C 595.346 637.714, 596.047 640.299, 596.427 643.163 C 597.181 648.846, 602.501 663.573, 604.173 664.607 C 604.850 665.025, 604.962 664.457, 604.494 662.982 C 604.098 661.734, 603.633 656.206, 603.461 650.698 C 603.172 641.472, 602.853 640.084, 599.412 633.091 C 593.085 620.233, 580.554 609.849, 566.321 605.670 C 560.687 604.016, 547.526 602.935, 542.106 603.681 M 449.540 614.500 C 449.796 620.550, 450.116 626.850, 450.252 628.500 C 450.495 631.438, 450.395 631.506, 445.426 631.796 L 440.351 632.092 438.043 641.047 C 436.773 645.971, 434.275 652.900, 432.492 656.444 L 429.251 662.887 431.508 665.007 C 432.749 666.174, 436.305 668.160, 439.410 669.422 C 444.234 671.383, 445.816 671.586, 450.278 670.816 C 455.147 669.976, 462.404 667.928, 467.815 665.866 C 470.666 664.779, 470.619 664.604, 462.962 648 C 456.833 634.708, 452.727 622.457, 450.464 610.705 L 449.076 603.500 449.540 614.500 M 709.500 622.701 C 705.087 623.735, 698.692 626.124, 694.220 628.407 C 688.273 631.445, 675.082 642.768, 672.693 646.886 C 670.896 649.984, 670.899 650, 673.136 650 C 674.636 650, 678.739 646.717, 685.443 640.154 C 695.977 629.841, 701.662 625.912, 708.750 624.043 C 711.087 623.427, 713 622.715, 713 622.461 C 713 621.959, 712.526 621.992, 709.500 622.701 M 398.957 632.104 C 394.563 642.712, 376.503 666.818, 370.128 670.584 C 368.592 671.491, 366.822 673.056, 366.194 674.061 C 365.220 675.621, 365.668 676.416, 369.249 679.481 C 371.558 681.457, 374.536 683.347, 375.868 683.682 C 377.206 684.018, 381.915 683.278, 386.395 682.028 C 390.853 680.785, 396.179 679.301, 398.231 678.731 C 402.427 677.566, 402.413 677.818, 398.893 666.500 C 397.867 663.200, 396.590 657.360, 396.057 653.523 C 395.162 647.087, 395.308 645.885, 397.945 638.023 C 400.835 629.408, 401.370 626.279, 398.957 632.104 M 490.561 655.750 C 490.200 657.263, 489.671 659.288, 489.385 660.250 C 488.969 661.649, 489.480 662, 491.933 662 C 493.620 662, 495 661.605, 495 661.122 C 495 659.963, 492.081 653, 491.595 653 C 491.387 653, 490.922 654.237, 490.561 655.750 M 664.251 656.545 C 655.357 658.940, 646.232 664.543, 634.831 674.609 C 630.499 678.434, 631.189 679, 640.187 679 C 647.038 679, 656.534 676.789, 662.287 673.854 C 667.311 671.291, 668.083 672.073, 663.773 675.359 C 655.660 681.548, 640.710 685.855, 633.782 684 C 631.076 683.275, 630.827 683.330, 632.362 684.310 C 633.386 684.965, 637.344 687.467, 641.158 689.871 C 644.971 692.275, 647.958 694.376, 647.794 694.539 C 647.631 694.702, 645.023 694.158, 641.999 693.330 C 638.974 692.501, 631.100 691.584, 624.500 691.292 L 612.500 690.760 607.346 701.630 C 604.511 707.609, 601.160 715.763, 599.899 719.750 C 598.638 723.737, 597.336 727, 597.006 727 C 596.676 727, 596.717 723.735, 597.098 719.744 C 598.256 707.620, 600.795 699.598, 606.619 689.661 C 608.525 686.410, 609.919 683.586, 609.718 683.385 C 609.517 683.184, 606.911 684.226, 603.927 685.700 C 596.074 689.578, 582.408 703.649, 578.235 712.154 C 572.912 723.001, 572.294 735.310, 576.379 749.151 C 578.905 757.711, 581.203 760.689, 585.887 761.481 C 594.813 762.989, 607.849 756.677, 616.341 746.737 C 621.985 740.132, 622.033 739.402, 617.949 722.610 C 615.883 714.114, 614.995 708.201, 615.199 704.284 L 615.500 698.500 617.688 706.500 C 618.891 710.900, 620.346 716.319, 620.921 718.543 C 623.046 726.767, 627.102 728.480, 637.377 725.493 C 646.254 722.912, 654 714.497, 654 707.433 C 654 705.308, 654.345 704.926, 655.750 705.497 C 661.016 707.637, 663.818 707.956, 668.638 706.963 C 680.764 704.465, 693.602 693.189, 700.606 678.885 C 707.247 665.323, 707.287 665.694, 698.743 661.585 C 685.833 655.375, 674.658 653.743, 664.251 656.545 M 716.500 678.360 C 713.750 679.685, 709.314 683.023, 706.642 685.778 L 701.784 690.788 706.142 691.529 L 710.500 692.269 706.500 693.460 C 700.556 695.229, 698.329 696.647, 691.478 703.020 C 682.745 711.145, 675.376 715.778, 666.932 718.456 C 659.413 720.840, 659.455 721.139, 667.500 722.504 C 672.255 723.312, 678.533 725.800, 677.761 726.572 C 677.461 726.873, 674.701 726.388, 671.628 725.494 C 668.556 724.601, 664.570 724.012, 662.771 724.185 L 659.500 724.500 665.534 728.191 C 668.852 730.221, 674.815 733.086, 678.784 734.557 C 682.753 736.028, 686 737.614, 686 738.081 C 686 739.427, 682.391 741, 679.316 740.995 C 676.411 740.989, 675.454 740.465, 665.113 733.213 C 661.751 730.855, 659.005 729.280, 659.011 729.713 C 659.050 732.665, 673.937 747.365, 680.131 750.568 C 684.687 752.924, 683.261 757, 677.882 757 C 675.808 757, 674.627 756.110, 672.906 753.250 C 669.409 747.441, 660.935 737.188, 657.407 734.497 L 654.224 732.069 658.647 740.285 C 661.420 745.437, 664.734 749.927, 667.534 752.328 C 669.990 754.433, 672 757.021, 672 758.078 C 672 762.931, 665.874 757.266, 658.967 746.025 C 653.877 737.743, 648.631 730.940, 650.087 734.512 C 650.314 735.068, 651.791 738.818, 653.369 742.845 C 655.129 747.337, 657.755 751.760, 660.162 754.291 C 664.641 758.999, 665.035 762.500, 661.086 762.500 C 658.222 762.500, 656.477 759.704, 651.355 746.907 C 649.418 742.066, 647.195 737.577, 646.417 736.931 C 643.973 734.903, 645.880 741.543, 650.746 752 C 654.709 760.518, 655.197 762.381, 655.474 770.022 C 655.840 780.117, 657.439 784.439, 662.789 789.789 C 669.098 796.098, 678.596 800.249, 687.961 800.792 C 695.344 801.219, 695.882 801.109, 697.346 798.873 C 699.867 795.019, 702.032 785.059, 702.149 776.774 C 702.240 770.338, 701.823 768.158, 699.651 763.719 C 696.532 757.344, 693.759 754.579, 687.323 751.426 C 684.670 750.126, 683.001 749.048, 683.614 749.031 C 687.808 748.913, 696.568 751.667, 704.601 755.627 L 714.021 760.271 723.261 759.751 C 729.628 759.392, 734.044 758.555, 737.467 757.058 C 745.076 753.729, 745.118 753.657, 743.029 747.583 C 740.466 740.136, 736.652 734.485, 731.830 730.992 C 725.378 726.318, 721.382 725.647, 708.066 726.997 C 695.103 728.312, 678.328 728.108, 685.500 726.722 C 692.705 725.330, 703.393 721.802, 709.120 718.925 C 720.480 713.219, 734.662 699.463, 740.027 688.946 C 741.871 685.332, 741.884 685.027, 740.263 683.405 C 738.097 681.240, 729.321 677.326, 724.878 676.545 C 722.440 676.116, 720.108 676.621, 716.500 678.360 M 552.276 725.003 C 540.295 728.143, 522.312 737.964, 513.536 746.160 C 504.766 754.350, 503.259 757.603, 511.734 750.049 C 518.910 743.654, 533.402 736.465, 550.250 730.943 C 560.588 727.555, 563 726.409, 563 724.882 C 563 722.550, 561.577 722.566, 552.276 725.003 M 636.759 745.250 C 636.393 752.708, 635.593 757.271, 633.823 762 C 631.361 768.577, 626.231 777.564, 625.408 776.741 C 625.161 776.495, 626.082 771.661, 627.452 765.999 C 630.973 751.458, 632.361 740.543, 631.010 738.019 C 629.346 734.910, 627.281 735.614, 625.933 739.750 C 625.261 741.813, 622.142 747.100, 619.002 751.500 C 612.421 760.722, 610.708 764.712, 609.038 774.709 C 606.666 788.906, 612.676 810, 619.093 810 C 622.560 810, 634.679 803.200, 639.258 798.686 C 644.235 793.780, 648.916 785.077, 649.678 779.312 C 649.983 776.999, 649.011 770.192, 647.204 762 C 645.566 754.575, 643.674 745.462, 643 741.750 C 641.914 735.774, 641.515 735, 639.518 735 C 637.356 735, 637.241 735.428, 636.759 745.250 M 571.296 763.144 C 568.813 766.135, 563.779 778.814, 562.023 786.500 C 558.432 802.213, 558.485 810.362, 562.085 796.185 C 563.033 792.452, 566.173 784.606, 569.064 778.750 C 573.671 769.413, 574.206 767.708, 573.402 764.906 C 572.642 762.256, 572.282 761.955, 571.296 763.144 M 672.428 764.328 C 670.925 768.243, 676.655 774.361, 679.564 771.947 C 681.645 770.220, 681.335 768.244, 678.545 765.455 C 675.845 762.754, 673.217 762.270, 672.428 764.328" stroke="none" fill="#C00000" fill-rule="evenodd"/>
</svg>