<svg xmlns="http://www.w3.org/2000/svg" width="1024" height="1024" viewBox="0 0 1024 1024" version="1.1">
	<path d="M 501.500 30.067 C 469.499 31.034, 456.764 32.301, 428 37.380 C 366.454 48.247, 303.230 73.784, 251 108.872 C 228.429 124.035, 212.172 137.193, 190.797 157.598 C 180.005 167.900, 180.032 166.904, 190.500 168.567 C 211.323 171.875, 236.436 182.718, 255.390 196.586 C 259.084 199.289, 265.120 203.721, 268.803 206.435 C 278.937 213.903, 300.789 236.201, 309.419 247.881 C 318.141 259.686, 325.597 272.012, 332.883 286.667 C 340.285 301.558, 340.267 301.138, 333.784 307.839 C 321.942 320.078, 306.864 339.827, 298.540 354 C 296.441 357.575, 294.127 361.472, 293.398 362.660 L 292.072 364.819 284.786 362.927 C 274.981 360.380, 274.999 360.376, 275.007 364.750 C 275.010 366.813, 274.553 371.875, 273.991 376 C 273.428 380.125, 272.299 389.350, 271.482 396.500 C 264.878 454.274, 255.448 510.558, 244.507 557.500 C 243.015 563.901, 236.081 586.373, 233.939 591.750 C 233.446 592.987, 233.310 594, 233.636 594 C 234.936 594, 250.430 584.299, 256.715 579.550 C 263.216 574.637, 263.617 574.065, 271.463 558.500 C 296.998 507.845, 323.131 484.662, 363.500 476.854 C 370.687 475.464, 409.233 474.900, 410.499 476.166 C 411.528 477.194, 408.685 481.917, 401.237 491.555 C 380.659 518.180, 350.666 536.238, 310.002 546.484 C 302.721 548.318, 301.406 548.974, 300.820 551.063 C 300.031 553.876, 293.638 600.526, 291.510 619 C 290.235 630.070, 287.720 649.767, 283.530 681.500 C 282.804 687, 280.833 701.175, 279.150 713 C 277.467 724.825, 274.699 744.625, 272.998 757 C 271.297 769.375, 269.277 783.550, 268.509 788.500 C 267.741 793.450, 266.854 799.750, 266.537 802.500 C 266.220 805.250, 265.322 812.225, 264.542 818 C 263.762 823.775, 262.828 831.173, 262.466 834.441 L 261.808 840.381 264.216 837.441 C 265.541 835.823, 270.186 829.775, 274.540 824 C 295.196 796.598, 315.030 775.094, 334.381 759.117 C 363.212 735.314, 382.937 724.224, 417.113 712.602 C 443.340 703.683, 475.787 698.129, 500.059 698.403 C 507.894 698.492, 508.899 698.736, 511.929 701.286 C 513.750 702.819, 516.536 704.743, 518.120 705.562 C 519.704 706.381, 521 707.391, 521 707.806 C 521 709.677, 513.119 711.177, 496 712.565 C 462.172 715.307, 440.014 720.197, 414.500 730.553 C 384.143 742.873, 361.709 756.941, 335.500 780.090 C 306.737 805.496, 285.498 831.528, 262.149 869.996 C 253.546 884.171, 255.055 877.870, 248.614 926.500 C 246.647 941.350, 245.030 953.950, 245.022 954.500 C 245 956.023, 248.605 949.809, 255.757 936 C 278.062 892.931, 300.657 859.436, 330.295 825.500 C 339.769 814.654, 348.830 805.952, 363.500 793.616 C 393.438 768.440, 424.153 753.121, 463.210 743.885 C 466.997 742.990, 487.318 740, 489.619 740 C 490.497 740, 490.095 741.780, 488.322 745.750 C 484.533 754.235, 478.183 774.140, 477.413 779.945 L 476.742 785 480.121 785.120 C 494.281 785.623, 512.894 783.480, 528.029 779.604 C 536.258 777.496, 541 776.689, 541 777.397 C 541 778.011, 540.536 780.085, 539.968 782.007 C 537.668 789.798, 536.888 801.185, 537.992 810.897 C 539.111 820.750, 543.603 835.885, 545.645 836.685 C 547.318 837.340, 564.920 826.529, 573.823 819.377 C 578.045 815.985, 585.266 809.338, 589.869 804.605 C 594.472 799.872, 598.410 796, 598.619 796 C 598.829 796, 599 796.863, 599 797.917 C 599 800.700, 602.471 808.365, 606.431 814.326 C 612.587 823.592, 618.812 825.187, 628.779 820.052 C 638.184 815.206, 644.939 809.750, 651.723 801.520 L 654.687 797.924 660.093 801.600 C 668.819 807.533, 677.013 810.932, 685.574 812.171 C 700.907 814.390, 707.357 811.460, 710.433 800.878 C 713.181 791.425, 714.965 781.678, 714.985 776 L 715.005 770.500 724.252 770.220 C 729.339 770.066, 735.750 769.223, 738.500 768.346 C 745.258 766.191, 759.060 759.008, 759.712 757.307 C 760.002 756.551, 758.226 751.786, 755.766 746.717 C 750.789 736.465, 740.664 724.492, 734.495 721.564 L 730.947 719.881 737.261 712.962 C 749.361 699.704, 755.611 686.556, 753.608 678.573 C 752.764 675.213, 735.987 665.313, 724.561 661.433 L 716.286 658.624 721.145 651.180 C 723.818 647.087, 727.350 640.984, 728.995 637.619 C 732.127 631.211, 737 613.237, 737 608.090 C 737 605.447, 736.579 605.012, 733.455 604.426 C 731.505 604.060, 723.926 604.249, 716.613 604.847 C 696.752 606.469, 682.338 611.588, 670 621.401 C 667.525 623.370, 665.222 624.985, 664.881 624.990 C 664.541 624.996, 664.179 620.871, 664.077 615.825 C 663.785 601.367, 660.553 587.120, 654.397 573.151 C 650.989 565.418, 640.981 548, 639.946 548 C 638.447 548, 627.628 557.508, 621.482 564.225 C 618.192 567.822, 613.266 574.528, 610.536 579.128 C 605.901 586.936, 599.029 604.298, 599.009 608.250 C 599.004 609.212, 598.769 610, 598.486 610 C 598.203 610, 595.394 607.900, 592.243 605.334 C 585.754 600.049, 577.307 595.828, 568.500 593.471 C 561.142 591.502, 544.654 590.483, 535.689 591.443 L 529.035 592.155 527.909 596.328 C 526.726 600.713, 528.105 623.826, 530.087 632.816 C 531.338 638.494, 536.197 648.016, 540.126 652.490 C 541.853 654.458, 543.094 656.196, 542.883 656.353 C 542.672 656.510, 539.760 657.444, 536.412 658.429 C 530.628 660.129, 530.156 660.132, 526.981 658.490 C 521.773 655.797, 512.201 645.122, 509.057 638.500 C 504.385 628.661, 504.382 627.493, 509.014 616.968 C 512.750 608.479, 515.594 595.962, 514.296 593.720 C 513.448 592.255, 518.924 584.269, 525.305 577.664 C 532.976 569.724, 538.014 567.327, 551 565.434 C 563.746 563.577, 567.584 562.374, 570.931 559.188 C 574.008 556.260, 578.542 545.854, 577.698 543.656 C 577.410 542.904, 574.740 540.916, 571.766 539.237 C 566.375 536.194, 562.844 532.634, 558.640 526 C 557.033 523.463, 555 521.988, 551.255 520.641 C 546.480 518.922, 545.967 518.416, 544.489 513.968 C 542.103 506.782, 540.624 506.003, 536.661 509.844 C 532.714 513.669, 532.021 513.720, 528.924 510.405 C 523.947 505.078, 516.777 503.350, 513.754 506.750 C 512.898 507.712, 511.642 510.378, 510.963 512.674 C 509.822 516.533, 509.546 516.778, 507.299 515.924 C 503.604 514.519, 486.356 514.853, 478.685 516.479 C 469.059 518.518, 458.769 523.830, 449.726 531.427 C 441.097 538.677, 438.918 539.525, 420 543.001 C 398.016 547.040, 393.263 548.704, 382 556.301 C 372.910 562.433, 360.246 577.381, 356.456 586.450 C 352.183 596.678, 346.402 622.587, 343.475 644.632 C 342.622 651.058, 340.973 657.642, 338.967 662.632 C 332.942 677.618, 332.779 678.240, 333.422 683.824 C 333.759 686.752, 334.927 690.897, 336.017 693.034 C 337.108 695.172, 338 697.534, 338 698.283 C 338 699.032, 333.837 701.814, 328.750 704.464 C 323.663 707.115, 315.775 711.757, 311.223 714.781 C 306.671 717.805, 302.785 720.104, 302.588 719.890 C 302.390 719.675, 303.054 713.875, 304.062 707 C 305.070 700.125, 306.582 688.875, 307.422 682 C 308.262 675.125, 309.851 663.200, 310.953 655.500 C 313.220 639.663, 316.945 612.191, 320.037 588.500 C 321.186 579.700, 322.304 571.597, 322.521 570.493 C 322.823 568.960, 324.479 568.077, 329.547 566.748 C 337.326 564.707, 353.276 558.399, 362.792 553.599 C 370.775 549.573, 388.681 537.834, 395 532.485 C 406.309 522.912, 422.411 505.311, 428.733 495.612 C 435.124 485.805, 451.453 456.120, 450.810 455.476 C 449.269 453.936, 433.168 451.672, 418.131 450.881 C 371.526 448.431, 333.468 457.332, 307.460 476.764 C 299.734 482.537, 288.757 493.361, 282.369 501.508 L 279.238 505.500 281.111 493.138 C 282.141 486.339, 283.410 479.139, 283.931 477.138 C 285.030 472.925, 289.562 447.592, 291.540 434.610 C 293.133 424.151, 293.689 423.407, 308 412.585 C 332.794 393.833, 340.203 389.713, 352.262 387.966 C 356.243 387.389, 360.552 386.478, 361.837 385.941 C 363.122 385.403, 370.997 379.718, 379.337 373.305 C 407.446 351.693, 419.768 345.515, 434.505 345.645 C 444.035 345.729, 451.587 347.765, 462.243 353.122 C 469.965 357.005, 470.163 357.047, 472.477 355.291 C 477.395 351.559, 489.707 341.359, 494.818 336.784 C 502.552 329.860, 519.830 318.584, 526.627 316.024 C 541.260 310.513, 550.721 311.003, 564.500 317.988 C 572.040 321.810, 577.830 326.201, 597.908 343.328 C 624.989 366.428, 665.998 405.364, 670.177 411.946 C 672.804 416.083, 673 417.107, 673 426.696 C 673 432.363, 672.682 437, 672.294 437 C 671.906 437, 661.607 426.957, 649.407 414.682 C 617.201 382.278, 577.712 346.665, 563.206 336.942 C 550.300 328.292, 540.974 327.759, 527.397 334.898 C 520.929 338.299, 490.024 361.750, 477.871 372.479 C 471.679 377.946, 470.941 377.888, 461.531 371.214 C 451.741 364.269, 446.559 362.500, 436 362.500 C 427.039 362.500, 426.061 362.715, 418.765 366.280 C 411.502 369.830, 394.537 381.941, 378.405 395.092 C 369.843 402.071, 364.742 404.467, 355.500 405.850 C 350.805 406.552, 345.866 408.244, 340.500 410.988 C 331.272 415.708, 311.870 429.743, 309.433 433.462 C 308.261 435.250, 307.778 438.197, 307.778 443.550 C 307.778 447.708, 308.060 451.393, 308.404 451.737 C 308.748 452.082, 310.486 450.986, 312.265 449.303 C 320.710 441.316, 338.229 428.322, 344.700 425.247 C 349.262 423.079, 354.466 421.503, 358.902 420.946 C 362.753 420.463, 367.388 419.432, 369.202 418.657 C 371.016 417.881, 379.993 411.679, 389.151 404.874 C 414.028 386.387, 416.817 384.459, 424.697 380.312 C 430.520 377.247, 432.287 376.716, 433.719 377.603 C 434.699 378.210, 438.873 383.385, 442.996 389.103 C 451.745 401.239, 468.115 418.537, 479.500 427.676 C 494.387 439.627, 518.671 453.149, 539 460.810 C 567.305 471.476, 581.229 475.194, 648.500 490.052 C 658.400 492.239, 667.513 494.255, 668.750 494.533 C 672.332 495.337, 672.319 495.439, 663.421 536 C 661.912 542.875, 660.226 550.570, 659.672 553.101 C 658.710 557.500, 658.886 558.155, 663.711 568.101 C 666.486 573.820, 669.485 580.750, 670.375 583.500 C 671.707 587.615, 673.845 600.164, 673.969 604.600 C 673.986 605.204, 677.816 603.854, 682.481 601.600 L 690.962 597.500 690.981 579.387 C 690.996 564.791, 691.381 559.743, 692.961 553.387 C 694.808 545.957, 698.032 530.687, 700.115 519.500 C 704.781 494.448, 706.840 462.427, 705.067 442.500 C 703.225 421.789, 703.001 420.423, 698.405 401.776 C 693.338 381.214, 689.208 369.999, 680.812 354 C 664.340 322.609, 643.844 299.887, 614.795 280.812 C 593.556 266.866, 571.512 257.864, 545.500 252.516 C 528.066 248.931, 500.209 248.032, 479.246 250.378 C 446.044 254.093, 412.286 266.294, 382.887 285.207 C 378.274 288.174, 373.975 290.920, 373.333 291.309 C 372.564 291.774, 371.577 290.221, 370.442 286.758 C 366.583 274.991, 354.108 252.352, 343.077 237.096 C 339.735 232.473, 337 228.152, 337 227.493 C 337 224.373, 363.478 206.785, 382.619 197.191 C 396.724 190.120, 410.438 184.556, 424.507 180.195 C 435.316 176.844, 458.115 171.657, 467 170.526 C 470.025 170.141, 473.850 169.656, 475.500 169.448 C 517.610 164.139, 561.761 168.713, 602.262 182.581 C 614.758 186.860, 637.560 197.895, 651.309 206.317 C 662.701 213.296, 670.929 219.457, 685.167 231.673 C 719.088 260.776, 745.057 302.385, 758.703 349.500 C 764.472 369.417, 764.815 370.914, 767.411 387.500 C 771.189 411.630, 772.286 434.084, 770.858 458 C 769.256 484.816, 768.285 491.768, 761.492 525 C 755.098 556.284, 752.884 572.921, 752.888 589.636 C 752.896 616.431, 757.590 636.863, 767.756 654.352 C 773.394 664.051, 785.748 675.588, 797.202 681.852 C 806.855 687.131, 828.581 695.163, 836.819 696.499 L 841.139 697.199 837.819 692.841 C 832.726 686.153, 828.198 675.333, 825.482 663.361 C 820.160 639.900, 823.401 596.446, 833.006 562.500 C 834.095 558.650, 837.680 545.825, 840.972 534 C 844.264 522.175, 848.386 507.775, 850.133 502 C 854.258 488.361, 862.373 456.625, 865.475 442 C 877.112 387.137, 877.779 340.256, 867.564 295.113 C 864.476 281.468, 856.469 253.848, 853.950 248.153 C 852.877 245.729, 852 243.345, 852 242.855 C 852 240.870, 836.740 208.706, 831.400 199.436 C 817.769 175.773, 802.133 154.905, 782.997 134.835 C 753.731 104.142, 727.878 84.905, 692.500 67.498 C 666.762 54.834, 653.866 50.044, 626.500 42.987 C 599.634 36.058, 571.599 31.815, 544 30.500 C 537.125 30.173, 530.150 29.778, 528.500 29.623 C 526.850 29.469, 514.700 29.668, 501.500 30.067 M 539 59.396 C 539 59.805, 540.395 62.168, 542.101 64.647 C 547.049 71.839, 552.927 85.293, 555.708 95.794 C 557.964 104.312, 558.293 107.621, 558.390 122.819 C 558.494 139.136, 558.581 139.887, 559.901 135.819 C 560.820 132.984, 561.313 126.689, 561.337 117.500 C 561.387 97.822, 557.672 84.161, 548.419 70 C 544.405 63.857, 539 57.772, 539 59.396 M 468.388 68.087 C 478.764 79.626, 486.149 92.040, 491.241 106.500 C 493.442 112.751, 494.838 118.872, 497.856 135.500 L 498.764 140.500 498.882 135.322 C 499.420 111.765, 487.679 82.574, 472.177 68.923 C 464.916 62.529, 463.014 62.109, 468.388 68.087 M 399.935 79.559 C 404.574 84.477, 411.223 92.325, 414.711 97 C 421.510 106.114, 431.424 125.249, 435.047 136.250 C 436.270 139.963, 437.406 143, 437.572 143 C 438.277 143, 436.551 134.919, 434.262 127.500 C 427.721 106.306, 412.552 84.967, 396.017 73.697 C 392.037 70.984, 392.503 71.681, 399.935 79.559 M 611.476 74.750 C 611.855 75.713, 613.250 81.675, 614.575 88 C 618.538 106.915, 617.519 130.278, 611.937 148.500 C 609 158.087, 612.317 152.298, 615.824 141.716 C 621.014 126.054, 621.882 109.339, 618.447 91.156 C 617.118 84.115, 612.833 73, 611.448 73 C 611.084 73, 611.096 73.787, 611.476 74.750 M 675.401 111.832 C 675.323 123.405, 674.821 128.505, 673.021 136 C 670.405 146.897, 665.880 160.233, 662.332 167.500 C 660.153 171.963, 660.115 172.232, 661.976 170 C 665.673 165.567, 672.794 149.764, 675.495 140 C 679.655 124.963, 679.947 105.525, 676.121 98.332 C 675.780 97.689, 675.455 103.764, 675.401 111.832 M 327.534 106.250 C 345.734 119.191, 362.418 135.884, 373.092 151.834 C 375.791 155.867, 378 158.894, 378 158.559 C 378 158.224, 376.476 154.924, 374.613 151.225 C 365.396 132.922, 344.558 112.399, 325.283 102.641 C 322.414 101.188, 319.769 100, 319.405 100 C 319.042 100, 322.700 102.813, 327.534 106.250 M 729.015 136.619 C 728.988 143.861, 726.093 157.713, 722.930 165.727 C 719.064 175.525, 714.434 184.051, 706.763 195.500 L 700.733 204.500 705.465 200 C 711.664 194.105, 719.380 182.667, 723.177 173.744 C 729.348 159.242, 732.909 138.501, 730 134 C 729.287 132.897, 729.027 133.591, 729.015 136.619 M 772.707 182 C 772.417 182.825, 771.468 186.507, 770.596 190.181 C 767.157 204.687, 758.696 219.249, 746.075 232.384 C 738.081 240.704, 738.760 241.080, 748.215 233.567 C 759.436 224.650, 770.103 206.202, 772.683 191.247 C 774.011 183.553, 774.024 178.243, 772.707 182 M 491.500 189.600 C 465.854 192.163, 455.100 194.032, 436.500 199.158 C 415.732 204.882, 399.778 211.253, 382.229 220.831 C 367.978 228.608, 367 229.246, 367 230.758 C 367 231.460, 368.968 235.289, 371.373 239.267 C 373.778 243.245, 376.992 248.975, 378.515 252 C 380.038 255.025, 381.949 258.516, 382.762 259.757 C 384.240 262.015, 384.240 262.015, 387.370 260.099 C 392.477 256.973, 414.064 246.325, 420 244.005 C 436.786 237.443, 457.058 231.935, 472 229.876 C 484.550 228.147, 511.827 227.259, 524 228.183 C 551.976 230.308, 578.018 237.362, 604.072 249.873 C 613.769 254.529, 632.694 266.312, 637.500 270.686 C 638.600 271.687, 642.277 274.805, 645.672 277.615 C 652.781 283.499, 669.369 300.936, 676.090 309.590 C 694.749 333.614, 711.805 368.254, 718.903 396.541 C 723.417 414.533, 724.968 425.495, 725.972 446.500 C 727.336 475.039, 724.704 502.957, 718.432 526.500 C 713.137 546.374, 710.938 560.076, 710.311 577.090 L 709.699 593.680 718.100 594.334 C 722.720 594.694, 728.075 594.990, 730 594.992 L 733.500 594.997 733.631 579.248 C 733.764 563.177, 734.664 556.493, 739.454 536 C 742.711 522.064, 745.593 505.407, 747.498 489.500 C 748.354 482.350, 749.264 475.908, 749.521 475.185 C 749.777 474.462, 750.261 464.562, 750.595 453.185 C 751.548 420.752, 747.505 385.157, 739.897 359 C 724.598 306.403, 700.166 268.944, 661.162 238.282 C 641.610 222.913, 622.789 212.693, 597.843 203.900 C 580.380 197.745, 567.368 194.723, 547 192.092 C 532.264 190.188, 500.075 188.743, 491.500 189.600 M 805.611 241.690 C 799.473 254.561, 787.136 268.639, 773.765 278.029 C 769.872 280.763, 767.026 283, 767.440 283 C 767.855 283, 771.842 281.102, 776.301 278.783 C 787.101 273.164, 797.199 263.056, 802.749 252.307 C 806.296 245.439, 808.904 238, 807.765 238 C 807.548 238, 806.579 239.660, 805.611 241.690 M 826.741 302.273 C 820.866 311.238, 810.420 319.740, 793.024 329.714 C 784.217 334.764, 785.094 335.146, 795.914 330.973 C 809.823 325.609, 822.800 314.908, 827.207 305.167 C 829.385 300.353, 829.111 298.655, 826.741 302.273 M 530.352 349.075 C 523.352 352.754, 520.927 354.540, 506.079 366.952 C 499.797 372.204, 492.260 378.419, 489.329 380.765 C 486.398 383.110, 484 385.657, 484 386.424 C 484 389.260, 500.776 403.524, 512.007 410.238 C 529.394 420.632, 540.130 424.235, 562.198 427.081 C 572.394 428.396, 575 427.819, 575 424.243 C 575 423.412, 569.240 416.829, 562.200 409.616 C 544.034 391.001, 536.070 379.138, 536.022 370.618 L 536 366.737 540.109 367.288 C 542.370 367.591, 550.013 370.740, 557.095 374.285 L 569.971 380.731 561.471 371.799 C 556.796 366.886, 550.723 359.535, 547.975 355.463 C 540.785 344.808, 539.416 344.311, 530.352 349.075 M 836.932 363.603 C 833.307 367.377, 819.902 375.759, 814 377.942 C 812.075 378.654, 806.900 380.527, 802.500 382.105 C 795.189 384.726, 794.832 384.974, 798.356 384.987 C 811.062 385.031, 833.242 373.817, 839.056 364.409 C 842.008 359.633, 841.082 359.282, 836.932 363.603 M 633.376 571.459 C 628.469 575.369, 619.467 587.776, 615.572 596 C 608.190 611.584, 606.084 632.274, 609.995 650.801 C 611.074 655.917, 612.387 660.867, 612.912 661.801 C 614.069 663.862, 614.257 663.396, 616.058 654 C 618.200 642.827, 624.887 626, 627.184 626 C 628.622 626, 628.066 629.462, 625.405 637.076 C 622.109 646.506, 620 657.483, 620 665.210 C 620 670.442, 620.198 671.080, 621.489 670.009 C 622.895 668.842, 627.951 654.408, 629.483 647.190 C 629.967 644.910, 630.985 643.576, 632.755 642.903 C 637.263 641.189, 637.358 643.378, 633.065 650.020 C 630.829 653.480, 628.984 656.803, 628.964 657.405 C 628.945 658.007, 628.310 661.087, 627.555 664.250 C 626.799 667.413, 626.573 670, 627.053 670 C 627.533 670, 629.768 667.286, 632.021 663.970 C 634.917 659.704, 635.926 657.342, 635.468 655.898 C 635.063 654.624, 635.452 653.158, 636.504 651.996 C 638.369 649.935, 641 650.367, 641 652.734 C 641 655.360, 634.930 666.720, 631.135 671.195 L 627.500 675.482 632.621 671.193 C 639.411 665.507, 643.055 660.837, 647.249 652.449 C 652.474 641.997, 653.514 636.510, 653.398 620 C 653.317 608.543, 652.846 603.846, 651.156 597.622 C 648.634 588.337, 643.264 576.826, 639.311 572.235 L 636.500 568.970 633.376 571.459 M 541.630 603.728 L 538.759 604.156 539.234 615.828 C 540.168 638.824, 546.886 647.603, 571.507 658.007 C 583.204 662.950, 586.779 665.432, 579.889 663.828 C 568.076 661.076, 548.647 665.399, 533.262 674.202 C 525.161 678.837, 516.679 687.054, 517.182 689.779 C 517.590 691.988, 541.550 704.098, 548.826 705.774 C 555.310 707.266, 564.910 707.365, 568.563 705.976 C 570.044 705.413, 575.279 700.933, 580.196 696.020 C 586.198 690.024, 591.140 686.087, 595.228 684.044 L 601.319 681 597.120 681 C 589.605 681, 573.681 683.081, 565.634 685.114 C 561.308 686.207, 557.560 686.894, 557.306 686.639 C 556.538 685.871, 565.080 681.256, 572.303 678.538 C 576.033 677.134, 583.228 675.291, 588.293 674.443 C 593.357 673.594, 597.879 672.796, 598.342 672.669 C 598.805 672.542, 591.708 663.049, 582.571 651.574 C 573.433 640.098, 566.168 630.498, 566.426 630.241 C 568.177 628.489, 580.669 640.286, 591.395 653.819 C 594.585 657.844, 597.328 660.994, 597.491 660.819 C 597.654 660.644, 596.961 657.350, 595.951 653.500 C 594.081 646.368, 593.314 634.551, 594.978 638.500 C 595.442 639.600, 596.491 643.425, 597.311 647 C 598.842 653.681, 603.664 665.669, 604.488 664.845 C 604.742 664.591, 604.475 661.484, 603.893 657.941 C 603.312 654.399, 603.096 649.538, 603.414 647.139 C 603.903 643.450, 603.383 641.477, 600.037 634.337 C 590.016 612.955, 565.590 600.153, 541.630 603.728 M 449.434 615 C 449.650 621.325, 450.142 627.513, 450.530 628.750 C 451.174 630.810, 450.907 631.006, 447.367 631.070 C 440.764 631.190, 439.768 632.044, 438.398 638.762 C 437.712 642.124, 435.505 648.988, 433.493 654.017 C 429.207 664.730, 429.330 665.084, 438.803 669.324 C 444.382 671.822, 444.645 671.845, 451.500 670.442 C 461.614 668.372, 467.837 666.563, 469.064 665.336 C 470.214 664.186, 467.652 657.277, 461.525 645 C 457.015 635.963, 454.153 627.344, 451.400 614.500 L 449.043 603.500 449.434 615 M 702.446 624.831 C 692.579 628.266, 686.789 632.162, 677.021 641.940 C 669.626 649.344, 669.547 649.475, 672.336 649.810 C 674.772 650.102, 676.676 648.682, 685.850 639.736 C 697.523 628.353, 698.466 627.699, 708 624.380 C 711.575 623.136, 713.600 622.097, 712.500 622.072 C 711.400 622.047, 706.876 623.289, 702.446 624.831 M 395.977 637.280 C 389.750 648.833, 382.418 658.365, 371.978 668.485 L 364.772 675.470 369.035 679.253 C 371.380 681.334, 374.343 683.299, 375.620 683.619 C 377.812 684.170, 396.600 679.799, 400.149 677.914 C 401.973 676.945, 401.911 676.498, 398.031 662.669 C 394.611 650.477, 395.389 641.173, 400.709 630.657 C 401.500 629.093, 401.991 627.658, 401.800 627.467 C 401.610 627.276, 398.989 631.692, 395.977 637.280 M 490.572 655 C 490.175 656.925, 489.629 659.288, 489.358 660.250 C 488.966 661.643, 489.490 662, 491.933 662 C 495.452 662, 495.597 661.176, 493.073 655.500 L 491.294 651.500 490.572 655 M 664.265 656.475 C 661.385 657.287, 656.872 659.044, 654.236 660.380 C 647.775 663.654, 630.800 676.867, 631.532 678.052 C 631.854 678.573, 635.610 679, 639.878 679 C 647.863 679, 655.700 677.206, 662.221 673.884 C 667.304 671.295, 666.239 673.747, 660.722 677.336 C 654.180 681.590, 644.056 684.300, 636.498 683.819 L 630.100 683.412 634.800 685.990 C 639.665 688.659, 647.830 694.015, 646.982 693.980 C 646.717 693.970, 642.900 693.310, 638.500 692.515 C 634.100 691.720, 626.394 691.054, 621.375 691.035 L 612.249 691 608.065 699.719 C 605.764 704.515, 602.446 712.503, 600.691 717.469 C 597.844 725.526, 597.465 726.133, 597.175 723.092 C 596.380 714.757, 600.452 700.183, 606.424 689.994 C 608.437 686.560, 609.870 683.537, 609.609 683.276 C 608.267 681.934, 597.482 689.444, 589.927 696.983 C 580.022 706.865, 575.520 714.810, 573.889 725.285 C 572.121 736.640, 576.108 754.199, 581.730 759.821 C 583.971 762.062, 584.692 762.213, 590.338 761.625 C 593.801 761.265, 598.909 759.813, 602 758.311 C 608.454 755.174, 619.582 744.515, 620.588 740.505 C 620.994 738.886, 620.574 734.514, 619.589 730.106 C 615.462 711.652, 614.923 708.392, 615.203 703.590 L 615.500 698.500 617.767 707 C 619.014 711.675, 620.503 717.213, 621.075 719.307 C 623.144 726.883, 627.509 728.530, 637.568 725.529 C 646.236 722.943, 654 714.393, 654 707.433 C 654 705.304, 654.342 704.927, 655.750 705.508 C 662.954 708.482, 668.812 708.052, 677.040 703.947 C 688.104 698.428, 697.348 687.773, 703.239 673.753 C 706.533 665.912, 706.326 665.227, 699.615 661.804 C 687.994 655.875, 673.919 653.754, 664.265 656.475 M 716.500 678.322 C 711.850 680.555, 700.995 690.273, 702.726 690.655 C 710.055 692.269, 709.948 692.024, 704.254 694.164 C 700.893 695.428, 696.502 698.437, 692.030 702.541 C 688.191 706.064, 682.677 710.520, 679.775 712.444 C 674.402 716.008, 664.310 720, 660.677 720 C 657.191 720, 659.454 720.967, 665.587 722.098 C 672.088 723.297, 678.625 725.709, 677.748 726.585 C 677.441 726.892, 675.106 726.436, 672.560 725.572 C 670.014 724.707, 666.058 724, 663.771 724 L 659.611 724 663.056 726.578 C 667.957 730.245, 673.658 733.075, 679.930 734.952 C 686.161 736.817, 687.139 738.160, 683.479 739.828 C 679.326 741.720, 676.565 741.209, 671.894 737.684 C 664.095 731.798, 658 727.882, 658 728.757 C 658 731.038, 669.833 743.537, 675.977 747.747 C 679.793 750.361, 682.934 752.973, 682.957 753.550 C 683.032 755.394, 680.684 757, 677.912 757 C 675.704 757, 674.513 755.882, 671.252 750.750 C 667.192 744.361, 656.106 731.561, 655.315 732.351 C 654.052 733.615, 662.024 747.007, 666.749 751.558 C 669.637 754.339, 672 757.377, 672 758.308 C 672 762.881, 665.743 757.043, 659.015 746.190 C 649.455 730.772, 648.558 730.045, 652.472 740.891 C 655.055 748.049, 656.852 751.292, 660.026 754.527 C 664.518 759.103, 665.008 762.281, 661.303 762.811 C 658.506 763.211, 657.036 760.938, 652.057 748.517 C 647.821 737.949, 644.188 732.583, 645.495 738.824 C 645.878 740.653, 648.191 746.720, 650.635 752.308 C 654.390 760.895, 655.079 763.475, 655.087 768.984 C 655.100 778.090, 657.290 784.086, 662.601 789.551 C 669.085 796.222, 678.485 800.373, 688.160 800.836 C 695.311 801.179, 695.924 801.046, 697.370 798.838 C 699.811 795.114, 702.216 784.238, 702.303 776.539 C 702.435 764.737, 697.320 756.035, 687.500 751.358 L 682.500 748.977 687 749.558 C 693.606 750.412, 697.765 751.850, 704.665 755.667 C 708.056 757.543, 713.254 759.472, 716.217 759.954 C 722.896 761.041, 732.673 759.361, 739.578 755.939 C 745.406 753.051, 745.504 751.928, 740.771 742.236 C 737.194 734.913, 732.146 729.985, 725.698 727.522 C 721.559 725.942, 719.806 725.876, 708.525 726.881 C 693.675 728.204, 681.830 728.312, 684 727.105 C 684.825 726.646, 687.653 725.991, 690.285 725.650 C 696.547 724.837, 708.643 719.754, 715.990 714.848 C 723.353 709.931, 732.073 701.255, 737.117 693.828 C 742.917 685.287, 742.752 684.232, 735 680.262 C 726.134 675.722, 722.673 675.359, 716.500 678.322 M 552 725.062 C 543.875 727.176, 527.245 735.209, 519.961 740.539 C 515.434 743.852, 505 754.302, 505 755.524 C 505 755.878, 507.668 753.753, 510.930 750.802 C 519.151 743.362, 536.985 734.794, 555.500 729.389 C 562.050 727.477, 564.610 725.795, 563.559 724.096 C 562.645 722.617, 560.803 722.771, 552 725.062 M 639.391 734.761 C 637.449 735.075, 637.239 735.908, 636.740 745.301 C 636.350 752.623, 635.496 757.412, 633.712 762.279 C 631.240 769.024, 626.279 777.613, 625.377 776.711 C 625.117 776.451, 626.022 771.797, 627.388 766.369 C 630.887 752.465, 632.387 740.591, 630.978 737.958 C 629.397 735.005, 627.010 735.911, 625.603 740 C 624.940 741.925, 622.050 746.725, 619.180 750.666 C 612.529 759.800, 610.299 764.908, 608.826 774.383 C 606.881 786.890, 610.490 803.354, 616.391 808.898 L 618.621 810.993 626.561 807.152 C 636.031 802.571, 643.171 795.988, 646.527 788.743 C 650.341 780.511, 650.477 776.866, 647.468 763.476 C 645.988 756.889, 644.164 747.724, 643.414 743.109 C 642.664 738.493, 641.927 734.650, 641.775 734.569 C 641.624 734.487, 640.551 734.574, 639.391 734.761 M 567.695 769.839 C 563.597 778.804, 560.572 789.579, 559.509 799 C 558.613 806.939, 559.530 806.456, 561.630 797.884 C 562.490 794.373, 565.653 786.325, 568.660 780 C 573.062 770.738, 574.007 767.867, 573.518 765.250 C 573.183 763.462, 572.542 762, 572.094 762 C 571.645 762, 569.666 765.527, 567.695 769.839 M 672.385 764.439 C 671.468 766.829, 674.298 771.469, 676.896 771.837 C 681.247 772.455, 681.771 767.354, 677.653 764.469 C 674.996 762.609, 673.092 762.598, 672.385 764.439" stroke="none" fill="#C00000" fill-rule="evenodd"/>
</svg>