<svg xmlns="http://www.w3.org/2000/svg" width="1024" height="1024" viewBox="0 0 1024 1024" version="1.1">
	<path d="M 485 30.621 C 428.235 35.512, 391.660 43.243, 348.500 59.476 C 327.382 67.418, 314.244 73.232, 295.500 82.929 C 254.689 104.043, 221.024 128.172, 190.744 158.012 C 186.479 162.216, 182.763 165.512, 182.486 165.336 C 182.210 165.160, 182.337 165.453, 182.769 165.985 C 183.201 166.518, 188.267 167.895, 194.027 169.045 C 208.266 171.887, 217.323 175.038, 231.500 182.080 C 265.379 198.910, 302.105 232.974, 322.040 266.056 C 328.497 276.772, 339 298.258, 339 300.752 C 339 301.797, 337.837 303.742, 336.415 305.076 C 332.279 308.956, 318.779 325, 319.651 325 C 320.088 325, 319.476 325.679, 318.292 326.508 C 315.806 328.249, 303.432 346.016, 297.056 357 C 294.662 361.125, 292.596 364.636, 292.465 364.803 C 292.335 364.969, 288.794 364.226, 284.597 363.150 C 275.251 360.756, 275.745 360.129, 274.077 376.500 C 273.405 383.100, 272.189 393.675, 271.376 400 C 270.562 406.325, 269.252 416.836, 268.465 423.357 C 264.929 452.644, 255.494 508.503, 249.100 538 C 244.009 561.485, 243.042 565.202, 238.564 578.499 C 235.676 587.076, 234.550 591.722, 235.256 592.158 C 236.288 592.796, 239.440 591.085, 249 584.698 C 262.406 575.742, 262.641 575.467, 270.516 559.499 C 278.716 542.871, 289.414 526.092, 299.606 513.873 C 314.841 495.607, 334.029 483.636, 357.147 477.973 C 366.865 475.593, 389.871 474.332, 403.238 475.448 C 413.518 476.306, 413.508 475.400, 403.389 489.088 C 390.399 506.659, 372.643 521.144, 350.449 532.275 C 339.883 537.574, 320.671 544.374, 308.750 547.035 C 305.587 547.741, 303 548.723, 303 549.218 C 303 549.713, 302.597 549.869, 302.105 549.565 C 300.909 548.826, 300 551.400, 300 555.524 C 300 557.372, 298.454 569.823, 296.566 583.192 C 294.677 596.561, 292.634 612, 292.026 617.500 C 291.418 623, 290.035 634.025, 288.953 642 C 287.871 649.975, 286.757 658.525, 286.478 661 C 286.199 663.475, 285.294 670.225, 284.468 676 C 282.656 688.655, 277.081 728.537, 273.564 754 C 272.158 764.175, 269.906 780.375, 268.559 790 C 262.429 833.795, 262.332 835, 264.932 835 C 265.479 835, 269.401 830.387, 273.648 824.750 C 305.226 782.826, 334.957 754.409, 368.185 734.388 C 382.857 725.548, 394.438 720.273, 413.500 713.745 C 440.989 704.332, 466.180 699.448, 493.091 698.316 L 507.682 697.702 512.849 701.786 C 515.690 704.032, 518.912 706.155, 520.008 706.502 C 526.573 708.586, 515.006 711.534, 494.500 713.003 C 449.980 716.192, 412.274 728.010, 375.191 750.398 C 348.474 766.527, 314.934 797.153, 292.120 826.250 C 289.209 829.962, 287.204 833.014, 287.664 833.030 C 288.124 833.047, 287.704 833.524, 286.730 834.091 C 284.722 835.260, 274.499 850.324, 262.725 869.461 C 253.744 884.060, 255.324 877.943, 249.677 920 C 245.990 947.457, 245.899 948.667, 247.523 948.667 C 248.287 948.667, 248.680 948.292, 248.397 947.833 C 248.114 947.375, 248.320 947, 248.854 947 C 249.389 947, 253.755 939.462, 258.555 930.250 C 263.356 921.038, 269.072 910.575, 271.257 907 C 273.443 903.425, 277.239 897.212, 279.692 893.194 C 285.952 882.941, 298.850 864.391, 308.333 852 C 338.762 812.243, 366.903 786.595, 401.890 766.733 C 416.916 758.202, 429.440 753.131, 450.551 747.031 C 464.470 743.009, 491 738.544, 491 740.224 C 491 740.498, 489.703 743.598, 488.118 747.112 C 484.379 755.398, 478.376 774.136, 477.450 780.410 L 476.725 785.319 490.613 784.689 C 506.286 783.977, 518.198 782.193, 531.822 778.516 C 536.949 777.132, 541.275 776, 541.435 776 C 541.594 776, 540.890 779.487, 539.870 783.750 C 536.426 798.141, 537.681 817.173, 543.005 831.319 C 545.537 838.046, 544.958 838.046, 556.161 831.314 C 568.220 824.067, 576.685 817.382, 587.855 806.286 C 593.550 800.629, 598.387 796, 598.605 796 C 598.822 796, 599 796.800, 599 797.778 C 599 800.865, 605.675 813.635, 609.505 817.874 C 613.885 822.722, 618.238 823.902, 624.331 821.891 C 631.054 819.672, 642.044 811.859, 648.764 804.521 L 655.028 797.681 659.290 800.742 C 672.605 810.304, 689.040 814.705, 700.500 811.777 C 705.147 810.590, 705.694 810.112, 708.252 805 C 711.733 798.046, 714.220 786.602, 714.284 777.250 L 714.333 770 722.917 769.994 C 730.569 769.989, 736.492 769.103, 741 767.287 C 741.825 766.954, 742.837 766.754, 743.250 766.841 C 743.663 766.929, 744 766.523, 744 765.941 C 744 765.359, 744.414 765.138, 744.919 765.450 C 745.425 765.763, 746.448 765.452, 747.193 764.759 C 747.938 764.067, 749.212 763.353, 750.024 763.174 C 750.836 762.995, 753.407 761.646, 755.739 760.176 C 760.584 757.122, 760.585 757.261, 755.586 746.500 C 750.722 736.032, 742.228 726.426, 732.595 720.500 C 731.198 719.641, 731.690 718.727, 736.091 714 C 746.464 702.862, 753.973 689.578, 753.990 682.339 C 753.998 678.924, 753.454 677.719, 750.959 675.619 C 746.295 671.694, 732.041 664.235, 723.942 661.480 C 719.945 660.121, 716.447 658.780, 716.167 658.500 C 715.888 658.221, 716.573 656.981, 717.691 655.746 C 721.403 651.645, 728.704 638.562, 731.304 631.354 C 733.830 624.352, 737 610.899, 737 607.182 C 737 604.575, 729.051 603.810, 714.879 605.054 C 697.657 606.565, 682.941 611.969, 670.500 621.349 L 664.500 625.873 663.797 614.196 C 662.570 593.824, 658.416 579.963, 647.777 560.750 C 643.943 553.824, 641.234 549.995, 640.163 549.985 C 638.724 549.971, 638.702 549.839, 640 549 C 640.825 548.467, 641.096 548.024, 640.603 548.015 C 637.795 547.967, 618.974 566.596, 613.263 575.076 C 608.230 582.550, 602.300 595.596, 600.275 603.650 C 599.328 607.418, 598.495 610.621, 598.424 610.770 C 598.353 610.918, 596.540 609.431, 594.397 607.466 C 584.994 598.845, 573.650 593.961, 558.274 591.912 C 549.264 590.711, 531.257 591.343, 529.685 592.915 C 527.721 594.879, 527.194 601.979, 528.128 613.904 C 529.716 634.177, 531.934 641.520, 539.443 651.358 C 541.400 653.921, 543 656.167, 543 656.350 C 543 657.484, 530.773 660.160, 528.360 659.554 C 524.718 658.640, 512.168 645.713, 509.309 639.931 C 508.104 637.494, 506.565 633.425, 505.889 630.890 C 504.699 626.427, 504.798 625.963, 508.978 616.432 C 512.301 608.855, 513.408 604.962, 513.781 599.543 C 514.385 590.744, 516.124 587.270, 524.390 578.342 C 532.062 570.055, 538.539 566.866, 551.500 564.993 C 568.876 562.483, 572.155 560.556, 575.842 550.696 C 578.333 544.034, 577.756 541.808, 573.120 540.192 C 569.024 538.764, 562.231 532.374, 559.853 527.711 C 558.245 524.560, 556.686 523.284, 551.949 521.239 C 546.736 518.990, 545.855 518.187, 544.388 514.347 C 543.475 511.956, 542.313 510, 541.805 510 C 541.297 510, 541.141 509.581, 541.457 509.069 C 541.774 508.557, 541.493 507.805, 540.834 507.398 C 540.100 506.944, 538.389 508.100, 536.415 510.383 L 533.194 514.109 529.847 511.233 C 524.134 506.325, 521.672 505, 518.263 505 C 515.622 505, 514.579 505.643, 512.989 508.250 C 511.899 510.038, 511.006 512.790, 511.004 514.367 C 511 516.885, 510.727 517.146, 508.750 516.514 C 503.663 514.889, 487.485 514.831, 480 516.411 C 469.816 518.561, 457.852 524.600, 450.015 531.549 C 446.449 534.711, 442.139 537.880, 440.439 538.590 C 438.738 539.301, 428.831 541.500, 418.423 543.477 C 392.684 548.368, 386.496 551.326, 372.500 565.430 C 365.881 572.100, 361.364 577.652, 359.140 581.850 C 353.768 591.990, 347.763 615.472, 344.523 639 C 342.455 654.023, 341.452 657.901, 337.151 667.500 C 332.637 677.574, 332.414 684.551, 336.328 693.168 C 338.283 697.472, 338.613 699.070, 337.701 699.806 C 337.041 700.340, 331.526 703.439, 325.446 706.693 C 319.366 709.947, 311.754 714.498, 308.531 716.806 C 305.307 719.115, 302.498 720.832, 302.288 720.622 C 301.907 720.241, 304.799 698.013, 309.525 665 C 310.902 655.375, 312.664 642.550, 313.440 636.500 C 315.092 623.612, 319.524 590.389, 321.306 577.532 L 322.550 568.563 330.025 566.418 C 352.486 559.971, 378.727 545.977, 396 531.234 C 415.879 514.267, 429.672 496.379, 443.654 469.430 L 451.012 455.250 441.756 453.375 C 434.062 451.816, 427.944 451.500, 405.500 451.500 C 388.248 451.500, 375.431 451.973, 370 452.809 C 333.258 458.467, 305.855 473.036, 286.393 497.261 C 283.195 501.242, 280.448 504.687, 280.289 504.917 C 280.130 505.146, 279.770 505.103, 279.489 504.822 C 278.984 504.317, 280.529 494.940, 287.373 457 C 289.307 446.275, 291.206 435.078, 291.591 432.118 C 292.626 424.180, 297.730 419.096, 321.500 402.328 C 335.272 392.613, 342.263 389.278, 352.209 387.680 C 356.769 386.948, 361.625 385.749, 363 385.017 C 364.375 384.284, 372.139 378.587, 380.254 372.356 C 396.280 360.051, 409.925 351.373, 418.832 347.823 C 423.321 346.034, 426.476 345.563, 434 345.563 C 444.593 345.563, 449.449 346.851, 462.409 353.102 L 470.318 356.916 474.159 353.874 C 476.272 352.201, 478 350.420, 478 349.916 C 478 349.412, 478.642 349, 479.427 349 C 480.213 349, 481.740 347.875, 482.821 346.500 C 483.903 345.125, 485.173 343.993, 485.644 343.984 C 486.115 343.976, 488.525 342.161, 491 339.952 C 493.475 337.743, 498.875 333.407, 503 330.316 C 507.125 327.226, 511.063 324.004, 511.750 323.157 C 512.438 322.311, 513 321.934, 513 322.321 C 513 322.708, 514.857 321.853, 517.127 320.420 C 525.861 314.906, 533.733 312.619, 544 312.613 C 561.038 312.603, 568.614 317.256, 608.926 352.490 C 631.258 372.010, 667.732 407.318, 671.066 412.646 C 672.582 415.068, 673.183 418.380, 673.678 427.033 C 674.154 435.355, 674.020 438.173, 673.162 437.887 C 672.524 437.674, 661.090 426.659, 647.751 413.408 C 634.413 400.157, 619.661 385.757, 614.969 381.408 C 604.178 371.405, 575.281 346, 574.693 346 C 574.450 346, 572.652 344.538, 570.698 342.750 C 566.152 338.592, 557.248 333.201, 551.769 331.290 C 545.798 329.207, 537.447 330.134, 529.752 333.736 C 522.880 336.951, 515.007 342.751, 489.594 363.318 C 480.296 370.843, 471.997 377, 471.152 377 C 470.307 377, 466.215 374.771, 462.058 372.047 C 449.700 363.948, 445.790 362.521, 435.925 362.510 C 427.809 362.501, 426.879 362.733, 418.580 366.845 C 409.853 371.170, 386 388.207, 386 390.116 C 386 390.667, 385.565 390.849, 385.033 390.520 C 384.501 390.191, 383.492 390.840, 382.792 391.961 C 382.092 393.083, 381.124 394, 380.641 394 C 380.159 394, 378.260 395.321, 376.422 396.935 C 370.428 402.197, 364.851 404.725, 356.652 405.896 C 347.037 407.269, 338.262 411.468, 325 421.040 C 313.813 429.115, 308.805 433.472, 309.692 434.359 C 310.045 434.712, 309.808 435, 309.167 435 C 308.373 435, 308 437.608, 308 443.155 C 308 450.996, 308.071 451.246, 309.831 449.653 C 310.838 448.741, 311.912 448.245, 312.217 448.550 C 312.522 448.856, 313.676 447.957, 314.780 446.553 C 315.884 445.149, 317.125 444, 317.536 444 C 317.948 444, 320.583 442.055, 323.392 439.678 C 338.286 427.078, 348.784 421.600, 360.975 420.069 C 369.288 419.026, 371.047 418.063, 388.349 405.090 C 413.466 386.257, 425.911 378.213, 431.276 377.343 C 434.709 376.785, 434.894 376.934, 439.760 384.137 C 459.199 412.912, 484.103 434.492, 516.820 450.910 C 534.803 459.934, 568.511 471.575, 593.500 477.390 C 623.675 484.413, 656.651 491.867, 662.500 492.988 C 672.190 494.845, 671.993 494.727, 671.389 498.306 C 670.277 504.893, 661.784 545.705, 660.480 550.722 C 658.879 556.888, 659.168 558.094, 665.350 571.011 C 670 580.729, 672.940 590.033, 673.076 595.460 C 673.118 597.132, 673.680 599.903, 674.326 601.618 L 675.500 604.735 683 601.078 L 690.500 597.421 690.632 579.242 C 690.746 563.503, 691.108 559.615, 693.325 550.281 C 702.401 512.068, 706.681 478.173, 705.545 453.500 C 704.526 431.383, 702.420 417.340, 697.019 396.664 C 675.709 315.079, 608.291 257.619, 524.803 249.884 C 510.706 248.578, 486.223 249.270, 472 251.377 C 441.837 255.845, 410.693 267.743, 383.056 285.356 C 377.312 289.017, 372.303 291.672, 371.927 291.256 C 371.550 290.840, 370.681 288.700, 369.995 286.500 C 366.510 275.316, 352.622 250.245, 341.907 235.794 C 335.141 226.669, 335.050 227.345, 343.955 220.604 C 372.383 199.084, 408.095 182.910, 446 174.390 C 517.272 158.369, 589.653 168.961, 648 203.949 C 678.394 222.175, 706.690 248.884, 726.137 277.703 C 737.901 295.137, 752.132 326.033, 758.624 348.236 C 764.189 367.270, 764.755 369.641, 766.980 383.269 C 772.143 414.898, 773.091 437.432, 770.523 467.500 C 768.633 489.626, 768.062 493.379, 761.618 526 C 753.799 565.581, 752.645 575.028, 753.259 594.392 C 754.071 620, 758.056 636.756, 767.199 653 C 778.190 672.529, 798.669 686.019, 830.175 694.485 C 834.947 695.767, 839.078 696.589, 839.355 696.312 C 839.632 696.035, 838.312 693.656, 836.423 691.025 C 825.729 676.140, 821.236 653.092, 823.065 622.500 C 824.172 603.983, 825.222 595.916, 828.594 580 C 831.312 567.172, 831.318 567.152, 844.129 522.500 C 868.343 438.107, 874.702 403.396, 874.357 357.500 C 874.131 327.441, 870.095 301.723, 860.424 268.730 C 838.149 192.739, 787.488 125.590, 720.488 83.252 C 677.080 55.822, 627.901 39.486, 567.500 32.431 C 554.239 30.883, 496.637 29.619, 485 30.621 M 538.045 58.150 C 538.020 58.507, 539.640 61.207, 541.644 64.150 C 553.338 81.318, 559.923 106.546, 558.743 129.655 C 558.150 141.280, 559.198 141.670, 561.084 130.526 C 563.795 114.501, 560.117 91.498, 552.409 76.275 C 549.322 70.177, 538.186 56.125, 538.045 58.150 M 468.763 68.805 C 479.695 81.507, 485.453 91.115, 490.453 105 C 493.445 113.309, 496.922 128.582, 497.055 134 C 497.102 135.925, 497.564 138.400, 498.081 139.500 C 498.708 140.834, 498.888 137.836, 498.620 130.500 C 497.753 106.731, 487.726 83.235, 472.328 68.886 C 464.042 61.164, 462.150 61.121, 468.763 68.805 M 399.503 79.388 C 415.001 95.320, 426.981 114.457, 434.629 135.500 C 438.287 145.565, 438.771 145.345, 436.392 134.697 C 433.451 121.532, 425.307 104.501, 416.400 92.887 C 411.110 85.991, 399.625 75.258, 394.388 72.317 C 391.139 70.492, 391.980 71.655, 399.503 79.388 M 612.657 80 C 616.191 94.020, 617.341 105.130, 616.640 118.500 C 616.081 129.175, 612.875 146.830, 610.481 152.414 C 609.920 153.722, 610.010 154.112, 610.765 153.646 C 612.774 152.404, 617.953 137.268, 619.607 127.808 C 622.516 111.159, 620.074 89.033, 613.999 76.998 C 612.334 73.699, 610.840 71, 610.679 71 C 610.519 71, 611.409 75.050, 612.657 80 M 675.450 110.181 C 675.380 128.856, 670.903 148.352, 662.458 166.750 C 660.628 170.738, 659.286 174, 659.475 174 C 659.665 174, 661.686 171.046, 663.966 167.436 C 669.113 159.287, 673.451 148.575, 676.665 136.085 C 678.762 127.935, 679.074 124.778, 678.753 115 C 678.523 108.014, 677.811 102.197, 676.938 100.181 C 675.591 97.072, 675.497 97.705, 675.450 110.181 M 320.996 101.722 C 346.429 119.836, 360.489 133.554, 373.250 152.710 C 376.413 157.458, 379 160.944, 379 160.458 C 379 159.972, 377.177 155.895, 374.950 151.398 C 369.921 141.248, 357.785 126.423, 346.951 117.197 C 338.712 110.181, 325.563 101.766, 321 100.589 L 318.500 99.945 320.996 101.722 M 728.558 140.023 C 727.033 157.509, 719.585 176.283, 706.549 195.500 L 699.766 205.500 705.475 200 C 720.061 185.946, 731.015 161.040, 730.982 142 C 730.964 131.261, 729.432 130.012, 728.558 140.023 M 772.713 182 C 772.384 182.825, 771.416 186.425, 770.560 190 C 768.517 198.538, 760.073 215.577, 754.319 222.775 C 751.802 225.924, 746.987 231.372, 743.621 234.882 L 737.500 241.265 743.500 237.230 C 746.800 235.011, 751.134 231.463, 753.130 229.347 C 762.467 219.453, 771.275 202.554, 773.046 191.139 C 774.152 184.014, 773.964 178.856, 772.713 182 M 492.986 190.155 C 457.684 191.747, 420.925 201.502, 387.959 218.026 C 373.027 225.511, 367.272 229.246, 367.568 231.261 C 367.710 232.229, 369.899 236.504, 372.433 240.761 C 374.966 245.017, 378.493 251.311, 380.270 254.746 C 382.046 258.182, 383.818 260.994, 384.207 260.996 C 384.596 260.998, 390.896 257.875, 398.207 254.055 C 415.277 245.137, 430.983 239.040, 448.353 234.590 C 509.643 218.887, 575.639 229.031, 625 261.742 C 653.874 280.877, 675.660 304.502, 694.079 336.656 C 714.938 373.069, 723.861 403.024, 726.205 444.500 C 727.948 475.334, 725.603 498.087, 717.034 533.500 C 712.189 553.526, 711.264 559.847, 710.500 578.165 C 709.786 595.268, 708.532 593.688, 723.206 594.177 L 732.911 594.500 733.351 577.500 C 733.781 560.854, 734.458 556.068, 739.062 537.125 C 740.181 532.520, 742.183 522.395, 743.510 514.625 C 751.641 467.022, 752.540 428.811, 746.421 391 C 743.284 371.615, 741.844 365.301, 737.412 351.500 C 726.298 316.886, 714.230 294.276, 693.910 270 C 684.920 259.260, 663.986 239.253, 662.640 240.115 C 662.309 240.327, 661.343 239.507, 660.493 238.294 C 658.592 235.580, 641.885 224.513, 629.607 217.834 C 619.882 212.545, 604.451 206.201, 589 201.142 C 563.563 192.812, 526.954 188.622, 492.986 190.155 M 803.114 245.587 C 797.800 256.003, 785.435 269.538, 773.750 277.732 C 769.487 280.721, 766 283.348, 766 283.571 C 766 284.534, 777.361 278.829, 782.806 275.131 C 793.153 268.105, 803.509 254.656, 806.964 243.758 C 809.337 236.273, 807.397 237.194, 803.114 245.587 M 823.613 306.033 C 816.861 314.240, 811.081 318.804, 796.296 327.599 C 785.034 334.298, 784.549 334.874, 792.099 332.582 C 805.668 328.464, 821.466 316.734, 826.466 307.067 C 828.257 303.602, 830.088 299, 829.675 299 C 829.523 299, 826.795 302.165, 823.613 306.033 M 529.162 349.461 C 525.676 351.339, 519.526 355.604, 515.496 358.938 C 511.465 362.272, 507.680 365, 507.084 365 C 506.488 365, 506 365.367, 506 365.815 C 506 366.263, 501.613 370.262, 496.250 374.701 C 481.045 387.288, 481.618 385.814, 489.134 393.002 C 497.951 401.435, 503.948 405.886, 515 412.199 C 527.363 419.261, 535.612 422.475, 547.691 424.937 C 567.402 428.954, 575 428.756, 575 424.226 C 575 423.386, 569.249 416.803, 562.221 409.599 C 547.312 394.318, 537.508 380.574, 536.441 373.458 C 536.035 370.749, 536.162 368.438, 536.748 367.852 C 538.340 366.260, 545.209 368.588, 558.343 375.172 L 570.288 381.160 561.589 371.737 C 556.804 366.554, 550.904 359.354, 548.477 355.736 C 543.719 348.643, 540.724 345.987, 537.527 346.023 C 536.412 346.035, 532.648 347.582, 529.162 349.461 M 838.427 362.115 C 831.602 369.331, 819.157 376.194, 802.197 382.093 L 793.500 385.119 800.500 384.685 C 808.843 384.168, 816.742 381.516, 825.142 376.414 C 832.878 371.714, 837.319 367.837, 840.076 363.377 C 842.890 358.825, 842.107 358.225, 838.427 362.115 M 631.107 573.756 C 625.944 579.086, 619.652 586.366, 619.873 586.754 C 619.953 586.894, 618.275 590.494, 616.144 594.754 C 610.695 605.651, 608.858 613.443, 608.273 628.132 C 607.781 640.506, 608.711 648.362, 612.096 660.445 C 613.488 665.413, 614.154 664.254, 616.516 652.750 C 617.504 647.938, 618.678 644, 619.125 644 C 619.572 644, 619.678 643.325, 619.362 642.500 C 619.045 641.675, 619.270 641, 619.862 641 C 620.453 641, 620.678 640.325, 620.362 639.500 C 620.045 638.675, 620.311 638, 620.952 638 C 621.593 638, 621.862 637.586, 621.550 637.081 C 621.237 636.575, 621.689 635.453, 622.555 634.588 C 623.420 633.723, 623.876 632.609, 623.570 632.112 C 623.263 631.616, 623.712 630.941, 624.569 630.612 C 625.426 630.283, 625.893 629.636, 625.607 629.174 C 625.322 628.712, 625.743 628.333, 626.544 628.333 C 627.345 628.333, 628 628.708, 628 629.167 C 628 629.625, 627.530 630, 626.956 630 C 626.382 630, 626.017 630.563, 626.145 631.250 C 626.526 633.297, 624.912 639, 623.952 639 C 623.463 639, 623.350 639.749, 623.701 640.664 C 624.166 641.874, 623.978 642.104, 623.012 641.508 C 622.017 640.892, 621.826 641.226, 622.249 642.844 C 622.559 644.030, 622.356 645, 621.798 645 C 621.206 645, 621.053 646.077, 621.432 647.584 C 621.788 649.005, 621.716 649.943, 621.272 649.668 C 620.827 649.393, 620.338 654.121, 620.183 660.173 C 619.891 671.628, 620.489 672.823, 623.550 666.904 C 625.304 663.511, 627.464 664.017, 626.562 667.609 C 625.879 670.330, 627.292 670.767, 629.211 668.428 C 629.920 667.564, 631.288 665.989, 632.250 664.928 C 633.212 663.868, 633.685 663, 633.300 663 C 632.915 663, 633.140 662.460, 633.800 661.800 C 634.733 660.867, 635.267 660.867, 636.200 661.800 C 637.133 662.733, 637.120 663, 636.141 663 C 635.449 663, 635.160 663.450, 635.500 664 C 635.840 664.550, 635.615 665, 635 665 C 634.385 665, 634.120 665.385, 634.411 665.855 C 634.701 666.326, 633.289 668.688, 631.272 671.105 C 628.809 674.058, 628.490 674.705, 630.303 673.076 C 631.786 671.742, 633 671.042, 633 671.519 C 633 673.311, 641.646 663.001, 645.282 656.873 C 651.921 645.686, 653.496 638.803, 653.491 621 C 653.487 603.946, 652.200 596.980, 646.840 585 C 643.619 577.801, 637.993 569.005, 636.607 569.002 C 636.116 569.001, 633.641 571.140, 631.107 573.756 M 449.114 612.500 C 449.078 618, 449.433 624.160, 449.905 626.189 C 450.855 630.278, 450.119 631, 445 631 C 440.481 631, 439 631.982, 439 634.979 C 439 638.317, 434.775 651.560, 431.932 657.132 C 428.770 663.331, 429.515 664.983, 437.245 668.913 L 443.990 672.343 451.745 670.656 C 465.396 667.687, 470 666.027, 470 664.073 C 470 663.095, 467.545 657.293, 464.544 651.178 C 457.482 636.790, 454.391 627.945, 451.516 613.906 L 449.181 602.500 449.114 612.500 M 541.132 603.721 L 538.764 604.170 539.258 616.335 C 539.906 632.277, 541.474 636.627, 549.461 644.632 C 554.104 649.286, 557.898 651.877, 565.201 655.382 C 570.493 657.922, 575.350 660, 575.995 660 C 576.639 660, 576.981 660.563, 576.753 661.250 C 576.483 662.067, 573.076 662.725, 566.920 663.149 C 549.440 664.354, 527.304 674.755, 518.746 685.784 C 516.103 689.189, 516.063 689.412, 517.746 691.272 C 519.918 693.673, 539.748 703.254, 547.006 705.409 C 553.746 707.411, 566.155 707.499, 569.800 705.572 C 571.285 704.787, 576.100 700.518, 580.500 696.085 C 584.900 691.653, 588.856 688.021, 589.292 688.013 C 589.727 688.006, 591.038 687.111, 592.205 686.024 C 593.372 684.937, 595.940 683.532, 597.913 682.903 C 599.886 682.273, 601.950 681.335, 602.500 680.818 C 603.538 679.841, 603.065 679.873, 582 682.207 C 575.675 682.907, 569.832 683.405, 569.015 683.312 C 568.198 683.220, 567.204 683.670, 566.806 684.314 C 566.264 685.191, 565.797 685.197, 564.941 684.341 C 564.085 683.485, 564.324 683.032, 565.899 682.532 C 567.055 682.165, 568 681.419, 568 680.874 C 568 680.328, 568.450 680.160, 569 680.500 C 569.550 680.840, 570 680.593, 570 679.952 C 570 679.311, 570.675 679.045, 571.500 679.362 C 572.325 679.678, 573 679.561, 573 679.100 C 573 678.026, 582.518 675.390, 591.471 673.985 C 595.305 673.383, 598.631 672.702, 598.862 672.471 C 599.094 672.240, 597.644 670.051, 595.641 667.607 C 593.639 665.163, 592 662.677, 592 662.082 C 592 661.487, 591.646 661, 591.214 661 C 590.221 661, 579 647.323, 579 646.112 C 579 645.618, 578.325 644.955, 577.500 644.638 C 576.675 644.322, 576 643.482, 576 642.772 C 576 642.062, 575.083 640.908, 573.961 640.208 C 572.840 639.508, 572.182 638.514, 572.500 638 C 572.818 637.486, 572.205 636.520, 571.139 635.854 C 570.072 635.188, 569.425 634.055, 569.701 633.336 C 570.061 632.400, 570.732 632.663, 572.068 634.264 C 573.094 635.494, 573.948 636.069, 573.967 635.542 C 574.005 634.426, 583 643.037, 583 644.190 C 583 644.615, 584.487 646.495, 586.304 648.366 C 588.121 650.237, 591.364 654.070, 593.509 656.884 C 597.651 662.315, 599.489 663.458, 598.119 659.750 C 597.661 658.513, 597.485 656.938, 597.727 656.250 C 597.969 655.563, 597.679 655, 597.083 655 C 596.487 655, 596 654.550, 596 654 C 596 653.450, 596.563 653.001, 597.250 653.002 C 597.938 653.004, 599.950 656.041, 601.723 659.752 L 604.946 666.500 604.319 661 C 603.974 657.975, 603.631 652.125, 603.556 648 C 603.442 641.659, 602.893 639.418, 600.007 633.500 C 595.966 625.215, 585.243 613.982, 577.315 609.728 C 567.557 604.492, 551.302 601.794, 541.132 603.721 M 701.791 624.896 C 697.551 626.427, 692.270 628.879, 690.054 630.346 C 685.249 633.525, 672.286 645.597, 670.905 648.178 C 670.060 649.757, 670.339 650, 672.998 650 C 675.546 650, 677.440 648.560, 684.159 641.514 C 693.791 631.413, 700.239 626.920, 709.008 624.200 C 713.847 622.700, 714.736 622.178, 712.500 622.149 C 710.850 622.129, 706.031 623.365, 701.791 624.896 M 397.634 633.713 C 391.572 646.003, 385.438 654.484, 374.748 665.355 L 364.824 675.446 368.831 679.184 C 374.404 684.382, 376.843 684.753, 387.485 682.020 C 398.822 679.109, 402.262 677.447, 401.607 675.198 C 395.002 652.525, 394.625 645.463, 399.416 634.156 C 403.328 624.924, 402.118 624.623, 397.634 633.713 M 594.079 644.583 C 594.127 645.748, 594.364 645.985, 594.683 645.188 C 594.972 644.466, 594.936 643.603, 594.604 643.271 C 594.272 642.939, 594.036 643.529, 594.079 644.583 M 630.923 643.281 C 630.881 643.402, 630.686 644.175, 630.489 645 C 630.292 645.825, 629.700 647.902, 629.174 649.616 C 628.184 652.838, 629.132 656.214, 630.434 654.107 C 630.810 653.498, 630.754 652.993, 630.309 652.985 C 629.864 652.976, 629.972 652.639, 630.548 652.235 C 632.433 650.913, 636.055 645.151, 635.268 644.724 C 634.011 644.044, 631.006 643.046, 630.923 643.281 M 489.941 656.374 C 489.247 659.475, 488.923 662.256, 489.221 662.555 C 490.194 663.527, 495 661.818, 495 660.501 C 495 659.795, 494.146 657.310, 493.101 654.977 L 491.202 650.736 489.941 656.374 M 635.953 652.895 C 634.974 653.944, 634.913 654.471, 635.742 654.747 C 636.527 655.009, 636.615 655.883, 636.014 657.464 C 635.129 659.792, 635.543 661, 637.226 661 C 637.716 661, 637.840 660.550, 637.500 660 C 637.160 659.450, 637.385 659, 638 659 C 638.615 659, 638.864 658.588, 638.553 658.085 C 638.242 657.582, 638.469 657.010, 639.057 656.814 C 639.645 656.618, 640.250 655.326, 640.402 653.943 C 640.719 651.054, 638.223 650.465, 635.953 652.895 M 663.230 656.550 C 656.582 658.340, 652.842 660.232, 646.293 665.116 C 643.429 667.252, 640.725 669, 640.283 669 C 639.842 669, 638.908 669.917, 638.208 671.039 C 637.508 672.160, 636.571 672.853, 636.126 672.578 C 635.112 671.951, 630.599 677.932, 631.447 678.780 C 631.789 679.123, 635.991 679.297, 640.785 679.168 C 652.047 678.863, 653 678.747, 653 677.679 C 653 677.188, 653.620 677.024, 654.378 677.315 C 655.136 677.606, 656.261 677.339, 656.878 676.722 C 657.495 676.105, 658.007 676.027, 658.015 676.550 C 658.024 677.072, 658.467 676.825, 659 676 C 659.568 675.121, 659.976 674.988, 659.985 675.679 C 660.009 677.575, 657.072 679.965, 655.471 679.351 C 654.662 679.040, 654 679.311, 654 679.952 C 654 680.593, 653.550 680.840, 653 680.500 C 652.450 680.160, 652 680.281, 652 680.769 C 652 683.201, 634.667 684.962, 630.849 682.919 C 629.738 682.324, 628.596 682.071, 628.312 682.355 C 628.028 682.639, 630.991 684.481, 634.898 686.448 C 639.236 688.633, 642 690.646, 642 691.620 C 642 692.751, 641.492 693.001, 640.250 692.480 C 639.288 692.077, 632.529 691.520, 625.232 691.242 L 611.963 690.738 609.318 696.869 C 607.863 700.241, 606.270 703, 605.777 703 C 605.285 703, 605.160 703.450, 605.500 704 C 605.840 704.550, 605.716 705, 605.226 705 C 604.735 705, 604.291 705.563, 604.239 706.250 C 604.024 709.079, 599.383 719.518, 598.237 719.750 C 597.557 719.887, 597 719.325, 597 718.500 C 597 717.675, 597.337 716.999, 597.750 716.997 C 598.163 716.995, 598.532 715.308, 598.572 713.247 C 598.684 707.385, 601.533 699.209, 606.469 690.579 C 608.961 686.223, 611 682.501, 611 682.309 C 611 682.117, 609.256 682.849, 607.124 683.937 C 604.992 685.024, 602.967 685.634, 602.624 685.290 C 602.281 684.947, 602 685.192, 602 685.833 C 602 686.475, 601.325 687, 600.500 687 C 599.675 687, 599 687.450, 599 688 C 599 688.550, 598.521 689, 597.935 689 C 597.350 689, 595.735 690.350, 594.347 692 C 592.958 693.650, 591.187 695, 590.411 695 C 589.635 695, 589 695.493, 589 696.097 C 589 696.700, 587.199 699.240, 584.997 701.741 C 579.092 708.450, 574.299 718.698, 573.477 726.374 C 572.156 738.708, 577.513 758.064, 583.072 761.039 C 586.554 762.902, 595.480 761.530, 602.563 758.043 C 606.716 755.999, 610.826 752.802, 614.896 748.452 C 622.114 740.736, 622.265 739.756, 618.586 724.500 C 615.009 709.665, 614.415 704.838, 616.252 705.543 C 617.157 705.890, 618.401 709.195, 619.443 714.017 C 621.675 724.349, 623.736 727, 629.535 727 C 640.214 727, 651.182 719.440, 653.447 710.519 C 654.757 705.361, 654.529 705.479, 660.013 707.122 C 665.234 708.686, 673.003 707.018, 679.407 702.957 C 681.971 701.331, 684.210 700, 684.383 700 C 684.905 700, 696.195 688.537, 696.202 688 C 696.206 687.725, 697.354 685.546, 698.754 683.158 C 701.528 678.423, 705.938 668.175, 705.976 666.374 C 706.014 664.600, 692.950 658.200, 685.897 656.537 C 678.017 654.680, 670.161 654.685, 663.230 656.550 M 578.388 662.163 C 578.698 663.748, 581 664.508, 581 663.024 C 581 662.396, 580.588 662.136, 580.085 662.447 C 579.582 662.758, 578.941 662.548, 578.660 661.981 C 578.380 661.414, 578.257 661.496, 578.388 662.163 M 626 662 C 624.718 662.828, 624.754 662.972, 626.250 662.985 C 627.212 662.993, 628 662.550, 628 662 C 628 660.780, 627.887 660.780, 626 662 M 716.252 677.972 C 710.782 680.455, 700.958 690.077, 703.039 690.913 C 703.843 691.236, 704.624 692.096, 704.775 692.824 C 704.926 693.553, 704.588 693.864, 704.025 693.515 C 703.461 693.167, 703 693.359, 703 693.941 C 703 694.523, 702.372 695, 701.603 695 C 700.835 695, 696.791 698.102, 692.617 701.894 C 688.443 705.685, 682.560 710.425, 679.543 712.428 C 673.768 716.261, 666.354 719.337, 664.963 718.477 C 664.509 718.197, 663.856 718.425, 663.510 718.984 C 663.165 719.543, 662.023 720, 660.972 720 C 659.737 720, 659.254 720.499, 659.606 721.415 C 659.984 722.401, 661.249 722.694, 663.776 722.381 C 668.095 721.845, 667.458 722.954, 662.912 723.884 L 659.723 724.536 664.112 727.515 C 666.525 729.154, 668.725 730.775, 669 731.119 C 669.275 731.463, 672.763 732.790, 676.750 734.069 C 682.322 735.856, 684 736.825, 684 738.256 C 684 739.280, 683.550 739.840, 683 739.500 C 682.450 739.160, 682 739.359, 682 739.941 C 682 742.173, 676.246 740.910, 672.182 737.786 C 669.882 736.018, 668 734.192, 668 733.727 C 668 733.262, 667.547 733.162, 666.993 733.504 C 666.439 733.847, 665.717 733.426, 665.388 732.569 C 665.059 731.712, 664.415 731.243, 663.957 731.527 C 663.498 731.810, 662.659 731.245, 662.092 730.271 C 661.525 729.297, 661.047 728.907, 661.030 729.405 C 661.014 729.903, 660.035 729.453, 658.854 728.405 L 656.709 726.500 657.979 729 C 658.678 730.375, 660.206 732.585, 661.375 733.911 C 662.544 735.237, 662.938 735.998, 662.250 735.602 C 661.563 735.206, 661 735.377, 661 735.981 C 661 736.586, 659.767 735.938, 658.260 734.540 C 654.676 731.217, 653.596 731.319, 655.401 734.809 C 657.882 739.606, 655.664 740.602, 652.649 736.045 C 651.176 733.820, 649.777 732, 649.540 732 C 649.302 732, 649.946 734.437, 650.971 737.416 C 651.996 740.395, 652.572 743.095, 652.251 743.416 C 651.410 744.256, 649.956 744.136, 650.244 743.250 C 650.378 742.837, 649.382 740.716, 648.030 738.536 C 645.639 734.680, 645.557 734.639, 644.972 737.036 C 644.641 738.391, 644.737 739.650, 645.185 739.833 C 645.633 740.017, 646.002 740.692, 646.005 741.333 C 646.008 741.975, 648.033 746.986, 650.505 752.468 C 654.561 761.462, 655 763.178, 655 770.022 C 655 779.251, 657.965 786.102, 664.308 791.532 C 672.406 798.463, 685.112 802.795, 693.344 801.430 C 697.972 800.662, 699.471 797.797, 701.680 785.500 C 703.189 777.104, 702.810 769.857, 700.588 764.582 C 699.027 760.876, 692.052 752.398, 690.853 752.750 C 690.384 752.888, 690 752.523, 690 751.941 C 690 751.359, 689.480 751.203, 688.845 751.595 C 688.110 752.050, 687.963 751.868, 688.441 751.096 C 689.578 749.256, 694.418 750.667, 703.722 755.552 C 708.244 757.926, 714.058 760.186, 716.642 760.574 C 722.213 761.409, 734.104 759.096, 740.730 755.889 C 744.671 753.981, 745.086 753.461, 744.539 751.124 C 743.153 745.202, 737.743 735.944, 733.473 732.185 C 726.798 726.309, 722.788 725.542, 705.781 726.885 C 696.126 727.648, 690.528 727.689, 688.500 727.014 C 685.586 726.043, 685.604 726.029, 689.157 726.535 C 691.169 726.821, 692.969 726.684, 693.157 726.230 C 693.346 725.776, 696.900 724.175, 701.054 722.672 C 711.034 719.063, 719.936 713.151, 728.500 704.446 C 736.161 696.658, 742.568 686.922, 741.633 684.486 C 740.812 682.347, 727.226 675.995, 723.528 676.022 C 721.863 676.034, 718.589 676.912, 716.252 677.972 M 552 724.666 C 539.567 728.022, 519.857 739.090, 511.589 747.359 C 504.606 754.341, 503.862 757.181, 510.601 751.125 C 517.840 744.620, 534.196 736.436, 550.145 731.337 C 561.784 727.617, 564.747 726.017, 563.559 724.096 C 562.666 722.651, 558.752 722.844, 552 724.666 M 638.750 734.689 C 637.344 735.057, 636.999 736.262, 636.992 740.823 C 636.988 743.945, 636.516 749.425, 635.942 753 C 634.746 760.456, 629.358 773, 627.352 773 C 625.645 773, 625.578 773.653, 628.400 762.763 C 631.129 752.231, 632.528 741.238, 631.537 738.116 C 630.637 735.280, 626 735.134, 626 737.941 C 626 739.009, 625.543 740.165, 624.984 740.510 C 624.425 740.856, 624.193 741.503, 624.469 741.950 C 624.964 742.750, 619.779 749.900, 617.831 751.104 C 617.280 751.445, 616.821 752.123, 616.810 752.612 C 616.800 753.100, 615.728 755.315, 614.428 757.533 C 610.738 763.829, 608.956 769.844, 608.309 778.184 C 607.350 790.555, 611.064 804.139, 616.830 809.349 C 618.833 811.159, 619.035 811.123, 626.288 807.634 C 639.271 801.390, 648.365 790.312, 649.653 779.172 C 650.023 775.969, 649.257 770.256, 647.214 761 C 645.575 753.575, 644.164 746.825, 644.078 746 C 643.992 745.175, 643.785 743.150, 643.619 741.500 C 643.221 737.558, 642.038 733.971, 641.183 734.116 C 640.807 734.180, 639.712 734.438, 638.750 734.689 M 665.417 741.638 C 665.550 742.539, 666.314 743.777, 667.116 744.388 C 667.919 745, 669.814 747.638, 671.330 750.250 C 672.845 752.862, 674.542 755, 675.101 755 C 675.660 755, 675.889 755.371, 675.609 755.824 C 674.825 757.093, 679.337 756.654, 680.747 755.324 C 682.628 753.551, 681.467 751.802, 676.238 748.532 C 673.632 746.903, 670.307 744.316, 668.849 742.785 C 665.800 739.582, 665.080 739.342, 665.417 741.638 M 651.743 744.590 C 650.995 745.339, 653.043 751.178, 656.327 757.659 C 658.312 761.575, 659.359 762.639, 661.101 762.511 C 662.455 762.411, 663.442 761.598, 663.611 760.442 C 663.912 758.397, 661.399 755, 659.587 755 C 658.980 755, 657.362 752.537, 655.992 749.527 C 653.541 744.143, 652.916 743.418, 651.743 744.590 M 663.333 751.500 C 663.333 752.325, 663.708 753, 664.167 753 C 664.625 753, 665 753.717, 665 754.594 C 665 755.470, 665.900 756.423, 667 756.710 C 668.100 756.998, 669 757.583, 669 758.010 C 669 758.437, 669.583 759.010, 670.295 759.283 C 672.764 760.230, 671.881 756.051, 669.186 754.033 C 667.709 752.927, 665.956 751.567, 665.292 751.011 C 663.666 749.650, 663.333 749.733, 663.333 751.500 M 568.651 767.712 C 564.224 776.489, 560.281 789.713, 559.389 798.774 C 558.565 807.145, 559.785 806.255, 562.187 796.736 C 563.191 792.756, 566.259 784.965, 569.006 779.422 C 573.911 769.525, 574.641 766.489, 573.074 762.500 C 572.416 760.826, 571.695 761.676, 568.651 767.712 M 673.398 765.551 C 672.938 767.383, 673.285 768.532, 674.629 769.625 C 675.658 770.463, 675.825 770.818, 675 770.414 C 674.175 770.010, 673.841 770.055, 674.257 770.514 C 674.674 770.972, 676.081 771.394, 677.385 771.452 C 679.471 771.543, 679.702 771.192, 679.309 768.528 C 678.896 765.723, 676.688 763, 674.828 763 C 674.394 763, 673.750 764.148, 673.398 765.551" stroke="none" fill="#C00000" fill-rule="evenodd"/>
</svg>